%TF.GenerationSoftware,KiCad,Pcbnew,8.0.1*%
%TF.CreationDate,2024-04-22T14:35:34+03:00*%
%TF.ProjectId,Zar Electronic,5a617220-456c-4656-9374-726f6e69632e,rev?*%
%TF.SameCoordinates,Original*%
%TF.FileFunction,Legend,Top*%
%TF.FilePolarity,Positive*%
%FSLAX46Y46*%
G04 Gerber Fmt 4.6, Leading zero omitted, Abs format (unit mm)*
G04 Created by KiCad (PCBNEW 8.0.1) date 2024-04-22 14:35:34*
%MOMM*%
%LPD*%
G01*
G04 APERTURE LIST*
%ADD10C,0.150000*%
%ADD11C,0.120000*%
G04 APERTURE END LIST*
D10*
X124433333Y-83054819D02*
X124100000Y-82578628D01*
X123861905Y-83054819D02*
X123861905Y-82054819D01*
X123861905Y-82054819D02*
X124242857Y-82054819D01*
X124242857Y-82054819D02*
X124338095Y-82102438D01*
X124338095Y-82102438D02*
X124385714Y-82150057D01*
X124385714Y-82150057D02*
X124433333Y-82245295D01*
X124433333Y-82245295D02*
X124433333Y-82388152D01*
X124433333Y-82388152D02*
X124385714Y-82483390D01*
X124385714Y-82483390D02*
X124338095Y-82531009D01*
X124338095Y-82531009D02*
X124242857Y-82578628D01*
X124242857Y-82578628D02*
X123861905Y-82578628D01*
X125290476Y-82388152D02*
X125290476Y-83054819D01*
X125052381Y-82007200D02*
X124814286Y-82721485D01*
X124814286Y-82721485D02*
X125433333Y-82721485D01*
X104050057Y-86895238D02*
X104002438Y-86990476D01*
X104002438Y-86990476D02*
X103907200Y-87085714D01*
X103907200Y-87085714D02*
X103764342Y-87228571D01*
X103764342Y-87228571D02*
X103716723Y-87323809D01*
X103716723Y-87323809D02*
X103716723Y-87419047D01*
X103954819Y-87371428D02*
X103907200Y-87466666D01*
X103907200Y-87466666D02*
X103811961Y-87561904D01*
X103811961Y-87561904D02*
X103621485Y-87609523D01*
X103621485Y-87609523D02*
X103288152Y-87609523D01*
X103288152Y-87609523D02*
X103097676Y-87561904D01*
X103097676Y-87561904D02*
X103002438Y-87466666D01*
X103002438Y-87466666D02*
X102954819Y-87371428D01*
X102954819Y-87371428D02*
X102954819Y-87180952D01*
X102954819Y-87180952D02*
X103002438Y-87085714D01*
X103002438Y-87085714D02*
X103097676Y-86990476D01*
X103097676Y-86990476D02*
X103288152Y-86942857D01*
X103288152Y-86942857D02*
X103621485Y-86942857D01*
X103621485Y-86942857D02*
X103811961Y-86990476D01*
X103811961Y-86990476D02*
X103907200Y-87085714D01*
X103907200Y-87085714D02*
X103954819Y-87180952D01*
X103954819Y-87180952D02*
X103954819Y-87371428D01*
X102954819Y-86609523D02*
X102954819Y-85942857D01*
X102954819Y-85942857D02*
X103954819Y-86371428D01*
X131833333Y-87454819D02*
X131500000Y-86978628D01*
X131261905Y-87454819D02*
X131261905Y-86454819D01*
X131261905Y-86454819D02*
X131642857Y-86454819D01*
X131642857Y-86454819D02*
X131738095Y-86502438D01*
X131738095Y-86502438D02*
X131785714Y-86550057D01*
X131785714Y-86550057D02*
X131833333Y-86645295D01*
X131833333Y-86645295D02*
X131833333Y-86788152D01*
X131833333Y-86788152D02*
X131785714Y-86883390D01*
X131785714Y-86883390D02*
X131738095Y-86931009D01*
X131738095Y-86931009D02*
X131642857Y-86978628D01*
X131642857Y-86978628D02*
X131261905Y-86978628D01*
X132785714Y-87454819D02*
X132214286Y-87454819D01*
X132500000Y-87454819D02*
X132500000Y-86454819D01*
X132500000Y-86454819D02*
X132404762Y-86597676D01*
X132404762Y-86597676D02*
X132309524Y-86692914D01*
X132309524Y-86692914D02*
X132214286Y-86740533D01*
X127638095Y-75917219D02*
X127638095Y-76726742D01*
X127638095Y-76726742D02*
X127685714Y-76821980D01*
X127685714Y-76821980D02*
X127733333Y-76869600D01*
X127733333Y-76869600D02*
X127828571Y-76917219D01*
X127828571Y-76917219D02*
X128019047Y-76917219D01*
X128019047Y-76917219D02*
X128114285Y-76869600D01*
X128114285Y-76869600D02*
X128161904Y-76821980D01*
X128161904Y-76821980D02*
X128209523Y-76726742D01*
X128209523Y-76726742D02*
X128209523Y-75917219D01*
X128638095Y-76012457D02*
X128685714Y-75964838D01*
X128685714Y-75964838D02*
X128780952Y-75917219D01*
X128780952Y-75917219D02*
X129019047Y-75917219D01*
X129019047Y-75917219D02*
X129114285Y-75964838D01*
X129114285Y-75964838D02*
X129161904Y-76012457D01*
X129161904Y-76012457D02*
X129209523Y-76107695D01*
X129209523Y-76107695D02*
X129209523Y-76202933D01*
X129209523Y-76202933D02*
X129161904Y-76345790D01*
X129161904Y-76345790D02*
X128590476Y-76917219D01*
X128590476Y-76917219D02*
X129209523Y-76917219D01*
X131733333Y-79954819D02*
X131400000Y-79478628D01*
X131161905Y-79954819D02*
X131161905Y-78954819D01*
X131161905Y-78954819D02*
X131542857Y-78954819D01*
X131542857Y-78954819D02*
X131638095Y-79002438D01*
X131638095Y-79002438D02*
X131685714Y-79050057D01*
X131685714Y-79050057D02*
X131733333Y-79145295D01*
X131733333Y-79145295D02*
X131733333Y-79288152D01*
X131733333Y-79288152D02*
X131685714Y-79383390D01*
X131685714Y-79383390D02*
X131638095Y-79431009D01*
X131638095Y-79431009D02*
X131542857Y-79478628D01*
X131542857Y-79478628D02*
X131161905Y-79478628D01*
X132066667Y-78954819D02*
X132733333Y-78954819D01*
X132733333Y-78954819D02*
X132304762Y-79954819D01*
X156166666Y-75184819D02*
X156166666Y-75899104D01*
X156166666Y-75899104D02*
X156119047Y-76041961D01*
X156119047Y-76041961D02*
X156023809Y-76137200D01*
X156023809Y-76137200D02*
X155880952Y-76184819D01*
X155880952Y-76184819D02*
X155785714Y-76184819D01*
X156547619Y-75184819D02*
X157166666Y-75184819D01*
X157166666Y-75184819D02*
X156833333Y-75565771D01*
X156833333Y-75565771D02*
X156976190Y-75565771D01*
X156976190Y-75565771D02*
X157071428Y-75613390D01*
X157071428Y-75613390D02*
X157119047Y-75661009D01*
X157119047Y-75661009D02*
X157166666Y-75756247D01*
X157166666Y-75756247D02*
X157166666Y-75994342D01*
X157166666Y-75994342D02*
X157119047Y-76089580D01*
X157119047Y-76089580D02*
X157071428Y-76137200D01*
X157071428Y-76137200D02*
X156976190Y-76184819D01*
X156976190Y-76184819D02*
X156690476Y-76184819D01*
X156690476Y-76184819D02*
X156595238Y-76137200D01*
X156595238Y-76137200D02*
X156547619Y-76089580D01*
X117538667Y-46141200D02*
X117681524Y-46188819D01*
X117681524Y-46188819D02*
X117919619Y-46188819D01*
X117919619Y-46188819D02*
X118014857Y-46141200D01*
X118014857Y-46141200D02*
X118062476Y-46093580D01*
X118062476Y-46093580D02*
X118110095Y-45998342D01*
X118110095Y-45998342D02*
X118110095Y-45903104D01*
X118110095Y-45903104D02*
X118062476Y-45807866D01*
X118062476Y-45807866D02*
X118014857Y-45760247D01*
X118014857Y-45760247D02*
X117919619Y-45712628D01*
X117919619Y-45712628D02*
X117729143Y-45665009D01*
X117729143Y-45665009D02*
X117633905Y-45617390D01*
X117633905Y-45617390D02*
X117586286Y-45569771D01*
X117586286Y-45569771D02*
X117538667Y-45474533D01*
X117538667Y-45474533D02*
X117538667Y-45379295D01*
X117538667Y-45379295D02*
X117586286Y-45284057D01*
X117586286Y-45284057D02*
X117633905Y-45236438D01*
X117633905Y-45236438D02*
X117729143Y-45188819D01*
X117729143Y-45188819D02*
X117967238Y-45188819D01*
X117967238Y-45188819D02*
X118110095Y-45236438D01*
X118443429Y-45188819D02*
X118681524Y-46188819D01*
X118681524Y-46188819D02*
X118872000Y-45474533D01*
X118872000Y-45474533D02*
X119062476Y-46188819D01*
X119062476Y-46188819D02*
X119300572Y-45188819D01*
X120205333Y-46188819D02*
X119633905Y-46188819D01*
X119919619Y-46188819D02*
X119919619Y-45188819D01*
X119919619Y-45188819D02*
X119824381Y-45331676D01*
X119824381Y-45331676D02*
X119729143Y-45426914D01*
X119729143Y-45426914D02*
X119633905Y-45474533D01*
X151604761Y-58650057D02*
X151509523Y-58602438D01*
X151509523Y-58602438D02*
X151414285Y-58507200D01*
X151414285Y-58507200D02*
X151271428Y-58364342D01*
X151271428Y-58364342D02*
X151176190Y-58316723D01*
X151176190Y-58316723D02*
X151080952Y-58316723D01*
X151128571Y-58554819D02*
X151033333Y-58507200D01*
X151033333Y-58507200D02*
X150938095Y-58411961D01*
X150938095Y-58411961D02*
X150890476Y-58221485D01*
X150890476Y-58221485D02*
X150890476Y-57888152D01*
X150890476Y-57888152D02*
X150938095Y-57697676D01*
X150938095Y-57697676D02*
X151033333Y-57602438D01*
X151033333Y-57602438D02*
X151128571Y-57554819D01*
X151128571Y-57554819D02*
X151319047Y-57554819D01*
X151319047Y-57554819D02*
X151414285Y-57602438D01*
X151414285Y-57602438D02*
X151509523Y-57697676D01*
X151509523Y-57697676D02*
X151557142Y-57888152D01*
X151557142Y-57888152D02*
X151557142Y-58221485D01*
X151557142Y-58221485D02*
X151509523Y-58411961D01*
X151509523Y-58411961D02*
X151414285Y-58507200D01*
X151414285Y-58507200D02*
X151319047Y-58554819D01*
X151319047Y-58554819D02*
X151128571Y-58554819D01*
X152128571Y-57983390D02*
X152033333Y-57935771D01*
X152033333Y-57935771D02*
X151985714Y-57888152D01*
X151985714Y-57888152D02*
X151938095Y-57792914D01*
X151938095Y-57792914D02*
X151938095Y-57745295D01*
X151938095Y-57745295D02*
X151985714Y-57650057D01*
X151985714Y-57650057D02*
X152033333Y-57602438D01*
X152033333Y-57602438D02*
X152128571Y-57554819D01*
X152128571Y-57554819D02*
X152319047Y-57554819D01*
X152319047Y-57554819D02*
X152414285Y-57602438D01*
X152414285Y-57602438D02*
X152461904Y-57650057D01*
X152461904Y-57650057D02*
X152509523Y-57745295D01*
X152509523Y-57745295D02*
X152509523Y-57792914D01*
X152509523Y-57792914D02*
X152461904Y-57888152D01*
X152461904Y-57888152D02*
X152414285Y-57935771D01*
X152414285Y-57935771D02*
X152319047Y-57983390D01*
X152319047Y-57983390D02*
X152128571Y-57983390D01*
X152128571Y-57983390D02*
X152033333Y-58031009D01*
X152033333Y-58031009D02*
X151985714Y-58078628D01*
X151985714Y-58078628D02*
X151938095Y-58173866D01*
X151938095Y-58173866D02*
X151938095Y-58364342D01*
X151938095Y-58364342D02*
X151985714Y-58459580D01*
X151985714Y-58459580D02*
X152033333Y-58507200D01*
X152033333Y-58507200D02*
X152128571Y-58554819D01*
X152128571Y-58554819D02*
X152319047Y-58554819D01*
X152319047Y-58554819D02*
X152414285Y-58507200D01*
X152414285Y-58507200D02*
X152461904Y-58459580D01*
X152461904Y-58459580D02*
X152509523Y-58364342D01*
X152509523Y-58364342D02*
X152509523Y-58173866D01*
X152509523Y-58173866D02*
X152461904Y-58078628D01*
X152461904Y-58078628D02*
X152414285Y-58031009D01*
X152414285Y-58031009D02*
X152319047Y-57983390D01*
X124433333Y-90454819D02*
X124100000Y-89978628D01*
X123861905Y-90454819D02*
X123861905Y-89454819D01*
X123861905Y-89454819D02*
X124242857Y-89454819D01*
X124242857Y-89454819D02*
X124338095Y-89502438D01*
X124338095Y-89502438D02*
X124385714Y-89550057D01*
X124385714Y-89550057D02*
X124433333Y-89645295D01*
X124433333Y-89645295D02*
X124433333Y-89788152D01*
X124433333Y-89788152D02*
X124385714Y-89883390D01*
X124385714Y-89883390D02*
X124338095Y-89931009D01*
X124338095Y-89931009D02*
X124242857Y-89978628D01*
X124242857Y-89978628D02*
X123861905Y-89978628D01*
X125004762Y-89883390D02*
X124909524Y-89835771D01*
X124909524Y-89835771D02*
X124861905Y-89788152D01*
X124861905Y-89788152D02*
X124814286Y-89692914D01*
X124814286Y-89692914D02*
X124814286Y-89645295D01*
X124814286Y-89645295D02*
X124861905Y-89550057D01*
X124861905Y-89550057D02*
X124909524Y-89502438D01*
X124909524Y-89502438D02*
X125004762Y-89454819D01*
X125004762Y-89454819D02*
X125195238Y-89454819D01*
X125195238Y-89454819D02*
X125290476Y-89502438D01*
X125290476Y-89502438D02*
X125338095Y-89550057D01*
X125338095Y-89550057D02*
X125385714Y-89645295D01*
X125385714Y-89645295D02*
X125385714Y-89692914D01*
X125385714Y-89692914D02*
X125338095Y-89788152D01*
X125338095Y-89788152D02*
X125290476Y-89835771D01*
X125290476Y-89835771D02*
X125195238Y-89883390D01*
X125195238Y-89883390D02*
X125004762Y-89883390D01*
X125004762Y-89883390D02*
X124909524Y-89931009D01*
X124909524Y-89931009D02*
X124861905Y-89978628D01*
X124861905Y-89978628D02*
X124814286Y-90073866D01*
X124814286Y-90073866D02*
X124814286Y-90264342D01*
X124814286Y-90264342D02*
X124861905Y-90359580D01*
X124861905Y-90359580D02*
X124909524Y-90407200D01*
X124909524Y-90407200D02*
X125004762Y-90454819D01*
X125004762Y-90454819D02*
X125195238Y-90454819D01*
X125195238Y-90454819D02*
X125290476Y-90407200D01*
X125290476Y-90407200D02*
X125338095Y-90359580D01*
X125338095Y-90359580D02*
X125385714Y-90264342D01*
X125385714Y-90264342D02*
X125385714Y-90073866D01*
X125385714Y-90073866D02*
X125338095Y-89978628D01*
X125338095Y-89978628D02*
X125290476Y-89931009D01*
X125290476Y-89931009D02*
X125195238Y-89883390D01*
X100166666Y-68684819D02*
X100166666Y-69399104D01*
X100166666Y-69399104D02*
X100119047Y-69541961D01*
X100119047Y-69541961D02*
X100023809Y-69637200D01*
X100023809Y-69637200D02*
X99880952Y-69684819D01*
X99880952Y-69684819D02*
X99785714Y-69684819D01*
X100595238Y-68780057D02*
X100642857Y-68732438D01*
X100642857Y-68732438D02*
X100738095Y-68684819D01*
X100738095Y-68684819D02*
X100976190Y-68684819D01*
X100976190Y-68684819D02*
X101071428Y-68732438D01*
X101071428Y-68732438D02*
X101119047Y-68780057D01*
X101119047Y-68780057D02*
X101166666Y-68875295D01*
X101166666Y-68875295D02*
X101166666Y-68970533D01*
X101166666Y-68970533D02*
X101119047Y-69113390D01*
X101119047Y-69113390D02*
X100547619Y-69684819D01*
X100547619Y-69684819D02*
X101166666Y-69684819D01*
X124433333Y-79854819D02*
X124100000Y-79378628D01*
X123861905Y-79854819D02*
X123861905Y-78854819D01*
X123861905Y-78854819D02*
X124242857Y-78854819D01*
X124242857Y-78854819D02*
X124338095Y-78902438D01*
X124338095Y-78902438D02*
X124385714Y-78950057D01*
X124385714Y-78950057D02*
X124433333Y-79045295D01*
X124433333Y-79045295D02*
X124433333Y-79188152D01*
X124433333Y-79188152D02*
X124385714Y-79283390D01*
X124385714Y-79283390D02*
X124338095Y-79331009D01*
X124338095Y-79331009D02*
X124242857Y-79378628D01*
X124242857Y-79378628D02*
X123861905Y-79378628D01*
X125338095Y-78854819D02*
X124861905Y-78854819D01*
X124861905Y-78854819D02*
X124814286Y-79331009D01*
X124814286Y-79331009D02*
X124861905Y-79283390D01*
X124861905Y-79283390D02*
X124957143Y-79235771D01*
X124957143Y-79235771D02*
X125195238Y-79235771D01*
X125195238Y-79235771D02*
X125290476Y-79283390D01*
X125290476Y-79283390D02*
X125338095Y-79331009D01*
X125338095Y-79331009D02*
X125385714Y-79426247D01*
X125385714Y-79426247D02*
X125385714Y-79664342D01*
X125385714Y-79664342D02*
X125338095Y-79759580D01*
X125338095Y-79759580D02*
X125290476Y-79807200D01*
X125290476Y-79807200D02*
X125195238Y-79854819D01*
X125195238Y-79854819D02*
X124957143Y-79854819D01*
X124957143Y-79854819D02*
X124861905Y-79807200D01*
X124861905Y-79807200D02*
X124814286Y-79759580D01*
X112554819Y-90442857D02*
X112078628Y-90776190D01*
X112554819Y-91014285D02*
X111554819Y-91014285D01*
X111554819Y-91014285D02*
X111554819Y-90633333D01*
X111554819Y-90633333D02*
X111602438Y-90538095D01*
X111602438Y-90538095D02*
X111650057Y-90490476D01*
X111650057Y-90490476D02*
X111745295Y-90442857D01*
X111745295Y-90442857D02*
X111888152Y-90442857D01*
X111888152Y-90442857D02*
X111983390Y-90490476D01*
X111983390Y-90490476D02*
X112031009Y-90538095D01*
X112031009Y-90538095D02*
X112078628Y-90633333D01*
X112078628Y-90633333D02*
X112078628Y-91014285D01*
X112554819Y-89490476D02*
X112554819Y-90061904D01*
X112554819Y-89776190D02*
X111554819Y-89776190D01*
X111554819Y-89776190D02*
X111697676Y-89871428D01*
X111697676Y-89871428D02*
X111792914Y-89966666D01*
X111792914Y-89966666D02*
X111840533Y-90061904D01*
X111888152Y-88633333D02*
X112554819Y-88633333D01*
X111507200Y-88871428D02*
X112221485Y-89109523D01*
X112221485Y-89109523D02*
X112221485Y-88490476D01*
X126438095Y-54917219D02*
X126438095Y-55726742D01*
X126438095Y-55726742D02*
X126485714Y-55821980D01*
X126485714Y-55821980D02*
X126533333Y-55869600D01*
X126533333Y-55869600D02*
X126628571Y-55917219D01*
X126628571Y-55917219D02*
X126819047Y-55917219D01*
X126819047Y-55917219D02*
X126914285Y-55869600D01*
X126914285Y-55869600D02*
X126961904Y-55821980D01*
X126961904Y-55821980D02*
X127009523Y-55726742D01*
X127009523Y-55726742D02*
X127009523Y-54917219D01*
X127390476Y-54917219D02*
X128009523Y-54917219D01*
X128009523Y-54917219D02*
X127676190Y-55298171D01*
X127676190Y-55298171D02*
X127819047Y-55298171D01*
X127819047Y-55298171D02*
X127914285Y-55345790D01*
X127914285Y-55345790D02*
X127961904Y-55393409D01*
X127961904Y-55393409D02*
X128009523Y-55488647D01*
X128009523Y-55488647D02*
X128009523Y-55726742D01*
X128009523Y-55726742D02*
X127961904Y-55821980D01*
X127961904Y-55821980D02*
X127914285Y-55869600D01*
X127914285Y-55869600D02*
X127819047Y-55917219D01*
X127819047Y-55917219D02*
X127533333Y-55917219D01*
X127533333Y-55917219D02*
X127438095Y-55869600D01*
X127438095Y-55869600D02*
X127390476Y-55821980D01*
X146857142Y-57854819D02*
X146523809Y-57378628D01*
X146285714Y-57854819D02*
X146285714Y-56854819D01*
X146285714Y-56854819D02*
X146666666Y-56854819D01*
X146666666Y-56854819D02*
X146761904Y-56902438D01*
X146761904Y-56902438D02*
X146809523Y-56950057D01*
X146809523Y-56950057D02*
X146857142Y-57045295D01*
X146857142Y-57045295D02*
X146857142Y-57188152D01*
X146857142Y-57188152D02*
X146809523Y-57283390D01*
X146809523Y-57283390D02*
X146761904Y-57331009D01*
X146761904Y-57331009D02*
X146666666Y-57378628D01*
X146666666Y-57378628D02*
X146285714Y-57378628D01*
X147809523Y-57854819D02*
X147238095Y-57854819D01*
X147523809Y-57854819D02*
X147523809Y-56854819D01*
X147523809Y-56854819D02*
X147428571Y-56997676D01*
X147428571Y-56997676D02*
X147333333Y-57092914D01*
X147333333Y-57092914D02*
X147238095Y-57140533D01*
X148142857Y-56854819D02*
X148761904Y-56854819D01*
X148761904Y-56854819D02*
X148428571Y-57235771D01*
X148428571Y-57235771D02*
X148571428Y-57235771D01*
X148571428Y-57235771D02*
X148666666Y-57283390D01*
X148666666Y-57283390D02*
X148714285Y-57331009D01*
X148714285Y-57331009D02*
X148761904Y-57426247D01*
X148761904Y-57426247D02*
X148761904Y-57664342D01*
X148761904Y-57664342D02*
X148714285Y-57759580D01*
X148714285Y-57759580D02*
X148666666Y-57807200D01*
X148666666Y-57807200D02*
X148571428Y-57854819D01*
X148571428Y-57854819D02*
X148285714Y-57854819D01*
X148285714Y-57854819D02*
X148190476Y-57807200D01*
X148190476Y-57807200D02*
X148142857Y-57759580D01*
X109757142Y-84454819D02*
X109423809Y-83978628D01*
X109185714Y-84454819D02*
X109185714Y-83454819D01*
X109185714Y-83454819D02*
X109566666Y-83454819D01*
X109566666Y-83454819D02*
X109661904Y-83502438D01*
X109661904Y-83502438D02*
X109709523Y-83550057D01*
X109709523Y-83550057D02*
X109757142Y-83645295D01*
X109757142Y-83645295D02*
X109757142Y-83788152D01*
X109757142Y-83788152D02*
X109709523Y-83883390D01*
X109709523Y-83883390D02*
X109661904Y-83931009D01*
X109661904Y-83931009D02*
X109566666Y-83978628D01*
X109566666Y-83978628D02*
X109185714Y-83978628D01*
X110709523Y-84454819D02*
X110138095Y-84454819D01*
X110423809Y-84454819D02*
X110423809Y-83454819D01*
X110423809Y-83454819D02*
X110328571Y-83597676D01*
X110328571Y-83597676D02*
X110233333Y-83692914D01*
X110233333Y-83692914D02*
X110138095Y-83740533D01*
X111090476Y-83550057D02*
X111138095Y-83502438D01*
X111138095Y-83502438D02*
X111233333Y-83454819D01*
X111233333Y-83454819D02*
X111471428Y-83454819D01*
X111471428Y-83454819D02*
X111566666Y-83502438D01*
X111566666Y-83502438D02*
X111614285Y-83550057D01*
X111614285Y-83550057D02*
X111661904Y-83645295D01*
X111661904Y-83645295D02*
X111661904Y-83740533D01*
X111661904Y-83740533D02*
X111614285Y-83883390D01*
X111614285Y-83883390D02*
X111042857Y-84454819D01*
X111042857Y-84454819D02*
X111661904Y-84454819D01*
X131733333Y-82854819D02*
X131400000Y-82378628D01*
X131161905Y-82854819D02*
X131161905Y-81854819D01*
X131161905Y-81854819D02*
X131542857Y-81854819D01*
X131542857Y-81854819D02*
X131638095Y-81902438D01*
X131638095Y-81902438D02*
X131685714Y-81950057D01*
X131685714Y-81950057D02*
X131733333Y-82045295D01*
X131733333Y-82045295D02*
X131733333Y-82188152D01*
X131733333Y-82188152D02*
X131685714Y-82283390D01*
X131685714Y-82283390D02*
X131638095Y-82331009D01*
X131638095Y-82331009D02*
X131542857Y-82378628D01*
X131542857Y-82378628D02*
X131161905Y-82378628D01*
X132590476Y-81854819D02*
X132400000Y-81854819D01*
X132400000Y-81854819D02*
X132304762Y-81902438D01*
X132304762Y-81902438D02*
X132257143Y-81950057D01*
X132257143Y-81950057D02*
X132161905Y-82092914D01*
X132161905Y-82092914D02*
X132114286Y-82283390D01*
X132114286Y-82283390D02*
X132114286Y-82664342D01*
X132114286Y-82664342D02*
X132161905Y-82759580D01*
X132161905Y-82759580D02*
X132209524Y-82807200D01*
X132209524Y-82807200D02*
X132304762Y-82854819D01*
X132304762Y-82854819D02*
X132495238Y-82854819D01*
X132495238Y-82854819D02*
X132590476Y-82807200D01*
X132590476Y-82807200D02*
X132638095Y-82759580D01*
X132638095Y-82759580D02*
X132685714Y-82664342D01*
X132685714Y-82664342D02*
X132685714Y-82426247D01*
X132685714Y-82426247D02*
X132638095Y-82331009D01*
X132638095Y-82331009D02*
X132590476Y-82283390D01*
X132590476Y-82283390D02*
X132495238Y-82235771D01*
X132495238Y-82235771D02*
X132304762Y-82235771D01*
X132304762Y-82235771D02*
X132209524Y-82283390D01*
X132209524Y-82283390D02*
X132161905Y-82331009D01*
X132161905Y-82331009D02*
X132114286Y-82426247D01*
X126150057Y-63095238D02*
X126102438Y-63190476D01*
X126102438Y-63190476D02*
X126007200Y-63285714D01*
X126007200Y-63285714D02*
X125864342Y-63428571D01*
X125864342Y-63428571D02*
X125816723Y-63523809D01*
X125816723Y-63523809D02*
X125816723Y-63619047D01*
X126054819Y-63571428D02*
X126007200Y-63666666D01*
X126007200Y-63666666D02*
X125911961Y-63761904D01*
X125911961Y-63761904D02*
X125721485Y-63809523D01*
X125721485Y-63809523D02*
X125388152Y-63809523D01*
X125388152Y-63809523D02*
X125197676Y-63761904D01*
X125197676Y-63761904D02*
X125102438Y-63666666D01*
X125102438Y-63666666D02*
X125054819Y-63571428D01*
X125054819Y-63571428D02*
X125054819Y-63380952D01*
X125054819Y-63380952D02*
X125102438Y-63285714D01*
X125102438Y-63285714D02*
X125197676Y-63190476D01*
X125197676Y-63190476D02*
X125388152Y-63142857D01*
X125388152Y-63142857D02*
X125721485Y-63142857D01*
X125721485Y-63142857D02*
X125911961Y-63190476D01*
X125911961Y-63190476D02*
X126007200Y-63285714D01*
X126007200Y-63285714D02*
X126054819Y-63380952D01*
X126054819Y-63380952D02*
X126054819Y-63571428D01*
X126054819Y-62190476D02*
X126054819Y-62761904D01*
X126054819Y-62476190D02*
X125054819Y-62476190D01*
X125054819Y-62476190D02*
X125197676Y-62571428D01*
X125197676Y-62571428D02*
X125292914Y-62666666D01*
X125292914Y-62666666D02*
X125340533Y-62761904D01*
X107461905Y-101254819D02*
X107461905Y-100254819D01*
X107461905Y-100254819D02*
X107700000Y-100254819D01*
X107700000Y-100254819D02*
X107842857Y-100302438D01*
X107842857Y-100302438D02*
X107938095Y-100397676D01*
X107938095Y-100397676D02*
X107985714Y-100492914D01*
X107985714Y-100492914D02*
X108033333Y-100683390D01*
X108033333Y-100683390D02*
X108033333Y-100826247D01*
X108033333Y-100826247D02*
X107985714Y-101016723D01*
X107985714Y-101016723D02*
X107938095Y-101111961D01*
X107938095Y-101111961D02*
X107842857Y-101207200D01*
X107842857Y-101207200D02*
X107700000Y-101254819D01*
X107700000Y-101254819D02*
X107461905Y-101254819D01*
X108414286Y-100350057D02*
X108461905Y-100302438D01*
X108461905Y-100302438D02*
X108557143Y-100254819D01*
X108557143Y-100254819D02*
X108795238Y-100254819D01*
X108795238Y-100254819D02*
X108890476Y-100302438D01*
X108890476Y-100302438D02*
X108938095Y-100350057D01*
X108938095Y-100350057D02*
X108985714Y-100445295D01*
X108985714Y-100445295D02*
X108985714Y-100540533D01*
X108985714Y-100540533D02*
X108938095Y-100683390D01*
X108938095Y-100683390D02*
X108366667Y-101254819D01*
X108366667Y-101254819D02*
X108985714Y-101254819D01*
X149304761Y-46650057D02*
X149209523Y-46602438D01*
X149209523Y-46602438D02*
X149114285Y-46507200D01*
X149114285Y-46507200D02*
X148971428Y-46364342D01*
X148971428Y-46364342D02*
X148876190Y-46316723D01*
X148876190Y-46316723D02*
X148780952Y-46316723D01*
X148828571Y-46554819D02*
X148733333Y-46507200D01*
X148733333Y-46507200D02*
X148638095Y-46411961D01*
X148638095Y-46411961D02*
X148590476Y-46221485D01*
X148590476Y-46221485D02*
X148590476Y-45888152D01*
X148590476Y-45888152D02*
X148638095Y-45697676D01*
X148638095Y-45697676D02*
X148733333Y-45602438D01*
X148733333Y-45602438D02*
X148828571Y-45554819D01*
X148828571Y-45554819D02*
X149019047Y-45554819D01*
X149019047Y-45554819D02*
X149114285Y-45602438D01*
X149114285Y-45602438D02*
X149209523Y-45697676D01*
X149209523Y-45697676D02*
X149257142Y-45888152D01*
X149257142Y-45888152D02*
X149257142Y-46221485D01*
X149257142Y-46221485D02*
X149209523Y-46411961D01*
X149209523Y-46411961D02*
X149114285Y-46507200D01*
X149114285Y-46507200D02*
X149019047Y-46554819D01*
X149019047Y-46554819D02*
X148828571Y-46554819D01*
X150114285Y-45554819D02*
X149923809Y-45554819D01*
X149923809Y-45554819D02*
X149828571Y-45602438D01*
X149828571Y-45602438D02*
X149780952Y-45650057D01*
X149780952Y-45650057D02*
X149685714Y-45792914D01*
X149685714Y-45792914D02*
X149638095Y-45983390D01*
X149638095Y-45983390D02*
X149638095Y-46364342D01*
X149638095Y-46364342D02*
X149685714Y-46459580D01*
X149685714Y-46459580D02*
X149733333Y-46507200D01*
X149733333Y-46507200D02*
X149828571Y-46554819D01*
X149828571Y-46554819D02*
X150019047Y-46554819D01*
X150019047Y-46554819D02*
X150114285Y-46507200D01*
X150114285Y-46507200D02*
X150161904Y-46459580D01*
X150161904Y-46459580D02*
X150209523Y-46364342D01*
X150209523Y-46364342D02*
X150209523Y-46126247D01*
X150209523Y-46126247D02*
X150161904Y-46031009D01*
X150161904Y-46031009D02*
X150114285Y-45983390D01*
X150114285Y-45983390D02*
X150019047Y-45935771D01*
X150019047Y-45935771D02*
X149828571Y-45935771D01*
X149828571Y-45935771D02*
X149733333Y-45983390D01*
X149733333Y-45983390D02*
X149685714Y-46031009D01*
X149685714Y-46031009D02*
X149638095Y-46126247D01*
X104250057Y-81595238D02*
X104202438Y-81690476D01*
X104202438Y-81690476D02*
X104107200Y-81785714D01*
X104107200Y-81785714D02*
X103964342Y-81928571D01*
X103964342Y-81928571D02*
X103916723Y-82023809D01*
X103916723Y-82023809D02*
X103916723Y-82119047D01*
X104154819Y-82071428D02*
X104107200Y-82166666D01*
X104107200Y-82166666D02*
X104011961Y-82261904D01*
X104011961Y-82261904D02*
X103821485Y-82309523D01*
X103821485Y-82309523D02*
X103488152Y-82309523D01*
X103488152Y-82309523D02*
X103297676Y-82261904D01*
X103297676Y-82261904D02*
X103202438Y-82166666D01*
X103202438Y-82166666D02*
X103154819Y-82071428D01*
X103154819Y-82071428D02*
X103154819Y-81880952D01*
X103154819Y-81880952D02*
X103202438Y-81785714D01*
X103202438Y-81785714D02*
X103297676Y-81690476D01*
X103297676Y-81690476D02*
X103488152Y-81642857D01*
X103488152Y-81642857D02*
X103821485Y-81642857D01*
X103821485Y-81642857D02*
X104011961Y-81690476D01*
X104011961Y-81690476D02*
X104107200Y-81785714D01*
X104107200Y-81785714D02*
X104154819Y-81880952D01*
X104154819Y-81880952D02*
X104154819Y-82071428D01*
X104154819Y-81166666D02*
X104154819Y-80976190D01*
X104154819Y-80976190D02*
X104107200Y-80880952D01*
X104107200Y-80880952D02*
X104059580Y-80833333D01*
X104059580Y-80833333D02*
X103916723Y-80738095D01*
X103916723Y-80738095D02*
X103726247Y-80690476D01*
X103726247Y-80690476D02*
X103345295Y-80690476D01*
X103345295Y-80690476D02*
X103250057Y-80738095D01*
X103250057Y-80738095D02*
X103202438Y-80785714D01*
X103202438Y-80785714D02*
X103154819Y-80880952D01*
X103154819Y-80880952D02*
X103154819Y-81071428D01*
X103154819Y-81071428D02*
X103202438Y-81166666D01*
X103202438Y-81166666D02*
X103250057Y-81214285D01*
X103250057Y-81214285D02*
X103345295Y-81261904D01*
X103345295Y-81261904D02*
X103583390Y-81261904D01*
X103583390Y-81261904D02*
X103678628Y-81214285D01*
X103678628Y-81214285D02*
X103726247Y-81166666D01*
X103726247Y-81166666D02*
X103773866Y-81071428D01*
X103773866Y-81071428D02*
X103773866Y-80880952D01*
X103773866Y-80880952D02*
X103726247Y-80785714D01*
X103726247Y-80785714D02*
X103678628Y-80738095D01*
X103678628Y-80738095D02*
X103583390Y-80690476D01*
X131733333Y-90454819D02*
X131400000Y-89978628D01*
X131161905Y-90454819D02*
X131161905Y-89454819D01*
X131161905Y-89454819D02*
X131542857Y-89454819D01*
X131542857Y-89454819D02*
X131638095Y-89502438D01*
X131638095Y-89502438D02*
X131685714Y-89550057D01*
X131685714Y-89550057D02*
X131733333Y-89645295D01*
X131733333Y-89645295D02*
X131733333Y-89788152D01*
X131733333Y-89788152D02*
X131685714Y-89883390D01*
X131685714Y-89883390D02*
X131638095Y-89931009D01*
X131638095Y-89931009D02*
X131542857Y-89978628D01*
X131542857Y-89978628D02*
X131161905Y-89978628D01*
X132114286Y-89550057D02*
X132161905Y-89502438D01*
X132161905Y-89502438D02*
X132257143Y-89454819D01*
X132257143Y-89454819D02*
X132495238Y-89454819D01*
X132495238Y-89454819D02*
X132590476Y-89502438D01*
X132590476Y-89502438D02*
X132638095Y-89550057D01*
X132638095Y-89550057D02*
X132685714Y-89645295D01*
X132685714Y-89645295D02*
X132685714Y-89740533D01*
X132685714Y-89740533D02*
X132638095Y-89883390D01*
X132638095Y-89883390D02*
X132066667Y-90454819D01*
X132066667Y-90454819D02*
X132685714Y-90454819D01*
X128333333Y-66554819D02*
X128000000Y-66078628D01*
X127761905Y-66554819D02*
X127761905Y-65554819D01*
X127761905Y-65554819D02*
X128142857Y-65554819D01*
X128142857Y-65554819D02*
X128238095Y-65602438D01*
X128238095Y-65602438D02*
X128285714Y-65650057D01*
X128285714Y-65650057D02*
X128333333Y-65745295D01*
X128333333Y-65745295D02*
X128333333Y-65888152D01*
X128333333Y-65888152D02*
X128285714Y-65983390D01*
X128285714Y-65983390D02*
X128238095Y-66031009D01*
X128238095Y-66031009D02*
X128142857Y-66078628D01*
X128142857Y-66078628D02*
X127761905Y-66078628D01*
X128809524Y-66554819D02*
X129000000Y-66554819D01*
X129000000Y-66554819D02*
X129095238Y-66507200D01*
X129095238Y-66507200D02*
X129142857Y-66459580D01*
X129142857Y-66459580D02*
X129238095Y-66316723D01*
X129238095Y-66316723D02*
X129285714Y-66126247D01*
X129285714Y-66126247D02*
X129285714Y-65745295D01*
X129285714Y-65745295D02*
X129238095Y-65650057D01*
X129238095Y-65650057D02*
X129190476Y-65602438D01*
X129190476Y-65602438D02*
X129095238Y-65554819D01*
X129095238Y-65554819D02*
X128904762Y-65554819D01*
X128904762Y-65554819D02*
X128809524Y-65602438D01*
X128809524Y-65602438D02*
X128761905Y-65650057D01*
X128761905Y-65650057D02*
X128714286Y-65745295D01*
X128714286Y-65745295D02*
X128714286Y-65983390D01*
X128714286Y-65983390D02*
X128761905Y-66078628D01*
X128761905Y-66078628D02*
X128809524Y-66126247D01*
X128809524Y-66126247D02*
X128904762Y-66173866D01*
X128904762Y-66173866D02*
X129095238Y-66173866D01*
X129095238Y-66173866D02*
X129190476Y-66126247D01*
X129190476Y-66126247D02*
X129238095Y-66078628D01*
X129238095Y-66078628D02*
X129285714Y-65983390D01*
X124433333Y-87954819D02*
X124100000Y-87478628D01*
X123861905Y-87954819D02*
X123861905Y-86954819D01*
X123861905Y-86954819D02*
X124242857Y-86954819D01*
X124242857Y-86954819D02*
X124338095Y-87002438D01*
X124338095Y-87002438D02*
X124385714Y-87050057D01*
X124385714Y-87050057D02*
X124433333Y-87145295D01*
X124433333Y-87145295D02*
X124433333Y-87288152D01*
X124433333Y-87288152D02*
X124385714Y-87383390D01*
X124385714Y-87383390D02*
X124338095Y-87431009D01*
X124338095Y-87431009D02*
X124242857Y-87478628D01*
X124242857Y-87478628D02*
X123861905Y-87478628D01*
X124766667Y-86954819D02*
X125385714Y-86954819D01*
X125385714Y-86954819D02*
X125052381Y-87335771D01*
X125052381Y-87335771D02*
X125195238Y-87335771D01*
X125195238Y-87335771D02*
X125290476Y-87383390D01*
X125290476Y-87383390D02*
X125338095Y-87431009D01*
X125338095Y-87431009D02*
X125385714Y-87526247D01*
X125385714Y-87526247D02*
X125385714Y-87764342D01*
X125385714Y-87764342D02*
X125338095Y-87859580D01*
X125338095Y-87859580D02*
X125290476Y-87907200D01*
X125290476Y-87907200D02*
X125195238Y-87954819D01*
X125195238Y-87954819D02*
X124909524Y-87954819D01*
X124909524Y-87954819D02*
X124814286Y-87907200D01*
X124814286Y-87907200D02*
X124766667Y-87859580D01*
D11*
%TO.C,R4*%
X121762742Y-81977500D02*
X122237258Y-81977500D01*
X121762742Y-83022500D02*
X122237258Y-83022500D01*
%TO.C,Q7*%
X104590000Y-86937500D02*
X104590000Y-86287500D01*
X104590000Y-86937500D02*
X104590000Y-87587500D01*
X107710000Y-86937500D02*
X107710000Y-86287500D01*
X107710000Y-86937500D02*
X107710000Y-87587500D01*
X107990000Y-86015000D02*
X107660000Y-85775000D01*
X107990000Y-85535000D01*
X107990000Y-86015000D01*
G36*
X107990000Y-86015000D02*
G01*
X107660000Y-85775000D01*
X107990000Y-85535000D01*
X107990000Y-86015000D01*
G37*
%TO.C,R1*%
X134737258Y-86477500D02*
X134262742Y-86477500D01*
X134737258Y-87522500D02*
X134262742Y-87522500D01*
%TO.C,U2*%
D10*
X114015000Y-74642400D02*
X141715000Y-74642400D01*
X141715000Y-94642400D01*
X114015000Y-94642400D01*
X114015000Y-74642400D01*
D11*
%TO.C,R7*%
X134737258Y-78977500D02*
X134262742Y-78977500D01*
X134737258Y-80022500D02*
X134262742Y-80022500D01*
%TO.C,J3*%
X155170000Y-79710000D02*
X155170000Y-79830000D01*
X155170000Y-79830000D02*
X157830000Y-79830000D01*
X156500000Y-77170000D02*
X157830000Y-77170000D01*
X157830000Y-77170000D02*
X157830000Y-78500000D01*
X157830000Y-79710000D02*
X157830000Y-79830000D01*
%TO.C,SW1*%
X115642000Y-46554000D02*
X122102000Y-46554000D01*
X115642000Y-46584000D02*
X115642000Y-46554000D01*
X115642000Y-48484000D02*
X115642000Y-51084000D01*
X115642000Y-53014000D02*
X115642000Y-52984000D01*
X115642000Y-53014000D02*
X122102000Y-53014000D01*
X122102000Y-46554000D02*
X122102000Y-46584000D01*
X122102000Y-48484000D02*
X122102000Y-51084000D01*
X122102000Y-53014000D02*
X122102000Y-52984000D01*
%TO.C,Q8*%
X150040000Y-60900000D02*
X150040000Y-60250000D01*
X150040000Y-60900000D02*
X150040000Y-61550000D01*
X153160000Y-60900000D02*
X153160000Y-60250000D01*
X153160000Y-60900000D02*
X153160000Y-61550000D01*
X153440000Y-59977500D02*
X153110000Y-59737500D01*
X153440000Y-59497500D01*
X153440000Y-59977500D01*
G36*
X153440000Y-59977500D02*
G01*
X153110000Y-59737500D01*
X153440000Y-59497500D01*
X153440000Y-59977500D01*
G37*
%TO.C,R8*%
X121762742Y-89477500D02*
X122237258Y-89477500D01*
X121762742Y-90522500D02*
X122237258Y-90522500D01*
%TO.C,J2*%
X99170000Y-73210000D02*
X99170000Y-73330000D01*
X99170000Y-73330000D02*
X101830000Y-73330000D01*
X100500000Y-70670000D02*
X101830000Y-70670000D01*
X101830000Y-70670000D02*
X101830000Y-72000000D01*
X101830000Y-73210000D02*
X101830000Y-73330000D01*
%TO.C,R5*%
X121762742Y-78977500D02*
X122237258Y-78977500D01*
X121762742Y-80022500D02*
X122237258Y-80022500D01*
%TO.C,R14*%
X109877500Y-89737258D02*
X109877500Y-89262742D01*
X110922500Y-89737258D02*
X110922500Y-89262742D01*
%TO.C,U3*%
D10*
X114015000Y-54042400D02*
X141715000Y-54042400D01*
X141715000Y-74042400D01*
X114015000Y-74042400D01*
X114015000Y-54042400D01*
D11*
%TO.C,R13*%
X147077500Y-59937258D02*
X147077500Y-59462742D01*
X148122500Y-59937258D02*
X148122500Y-59462742D01*
%TO.C,R12*%
X110262742Y-85077500D02*
X110737258Y-85077500D01*
X110262742Y-86122500D02*
X110737258Y-86122500D01*
%TO.C,R6*%
X134737258Y-81977500D02*
X134262742Y-81977500D01*
X134737258Y-83022500D02*
X134262742Y-83022500D01*
%TO.C,Q1*%
X126440000Y-63000000D02*
X126440000Y-62350000D01*
X126440000Y-63000000D02*
X126440000Y-63650000D01*
X129560000Y-63000000D02*
X129560000Y-62350000D01*
X129560000Y-63000000D02*
X129560000Y-63650000D01*
X126490000Y-64162500D02*
X126160000Y-64402500D01*
X126160000Y-63922500D01*
X126490000Y-64162500D01*
G36*
X126490000Y-64162500D02*
G01*
X126160000Y-64402500D01*
X126160000Y-63922500D01*
X126490000Y-64162500D01*
G37*
%TO.C,D2*%
X104221249Y-101906209D02*
X106406209Y-99721249D01*
X101388959Y-96889613D02*
G75*
G02*
X106406088Y-99721369I2114576J-2113923D01*
G01*
X104221369Y-101906088D02*
G75*
G02*
X101389613Y-96888959I-717834J2902553D01*
G01*
X106003535Y-99003535D02*
G75*
G02*
X101003535Y-99003535I-2500000J0D01*
G01*
X101003535Y-99003535D02*
G75*
G02*
X106003535Y-99003535I2500000J0D01*
G01*
%TO.C,Q6*%
X154221250Y-51906210D02*
X156406210Y-49721250D01*
X151388960Y-46889614D02*
G75*
G02*
X156406089Y-49721370I2114576J-2113923D01*
G01*
X154221370Y-51906089D02*
G75*
G02*
X151389614Y-46888960I-717834J2902553D01*
G01*
X156003536Y-49003536D02*
G75*
G02*
X151003536Y-49003536I-2500000J0D01*
G01*
X151003536Y-49003536D02*
G75*
G02*
X156003536Y-49003536I2500000J0D01*
G01*
%TO.C,Q9*%
X104740000Y-81500000D02*
X104740000Y-80850000D01*
X104740000Y-81500000D02*
X104740000Y-82150000D01*
X107860000Y-81500000D02*
X107860000Y-80850000D01*
X107860000Y-81500000D02*
X107860000Y-82150000D01*
X104790000Y-82662500D02*
X104460000Y-82902500D01*
X104460000Y-82422500D01*
X104790000Y-82662500D01*
G36*
X104790000Y-82662500D02*
G01*
X104460000Y-82902500D01*
X104460000Y-82422500D01*
X104790000Y-82662500D01*
G37*
%TO.C,R2*%
X134737258Y-89477500D02*
X134262742Y-89477500D01*
X134737258Y-90522500D02*
X134262742Y-90522500D01*
%TO.C,R9*%
X128737258Y-66977500D02*
X128262742Y-66977500D01*
X128737258Y-68022500D02*
X128262742Y-68022500D01*
%TO.C,R3*%
X121762742Y-86977500D02*
X122237258Y-86977500D01*
X121762742Y-88022500D02*
X122237258Y-88022500D01*
%TD*%
M02*
