%TF.GenerationSoftware,KiCad,Pcbnew,8.0.1*%
%TF.CreationDate,2024-04-22T14:35:34+03:00*%
%TF.ProjectId,Zar Electronic,5a617220-456c-4656-9374-726f6e69632e,rev?*%
%TF.SameCoordinates,Original*%
%TF.FileFunction,Soldermask,Bot*%
%TF.FilePolarity,Negative*%
%FSLAX46Y46*%
G04 Gerber Fmt 4.6, Leading zero omitted, Abs format (unit mm)*
G04 Created by KiCad (PCBNEW 8.0.1) date 2024-04-22 14:35:34*
%MOMM*%
%LPD*%
G01*
G04 APERTURE LIST*
G04 Aperture macros list*
%AMRoundRect*
0 Rectangle with rounded corners*
0 $1 Rounding radius*
0 $2 $3 $4 $5 $6 $7 $8 $9 X,Y pos of 4 corners*
0 Add a 4 corners polygon primitive as box body*
4,1,4,$2,$3,$4,$5,$6,$7,$8,$9,$2,$3,0*
0 Add four circle primitives for the rounded corners*
1,1,$1+$1,$2,$3*
1,1,$1+$1,$4,$5*
1,1,$1+$1,$6,$7*
1,1,$1+$1,$8,$9*
0 Add four rect primitives between the rounded corners*
20,1,$1+$1,$2,$3,$4,$5,0*
20,1,$1+$1,$4,$5,$6,$7,0*
20,1,$1+$1,$6,$7,$8,$9,0*
20,1,$1+$1,$8,$9,$2,$3,0*%
%AMRotRect*
0 Rectangle, with rotation*
0 The origin of the aperture is its center*
0 $1 length*
0 $2 width*
0 $3 Rotation angle, in degrees counterclockwise*
0 Add horizontal line*
21,1,$1,$2,0,0,$3*%
G04 Aperture macros list end*
%ADD10R,2.524000X1.524000*%
%ADD11O,2.524000X1.524000*%
%ADD12R,1.700000X1.700000*%
%ADD13RotRect,1.800000X1.800000X135.000000*%
%ADD14C,1.800000*%
%ADD15O,1.700000X1.700000*%
%ADD16RoundRect,0.225000X-0.250000X0.225000X-0.250000X-0.225000X0.250000X-0.225000X0.250000X0.225000X0*%
%ADD17RoundRect,0.250000X-0.475000X0.250000X-0.475000X-0.250000X0.475000X-0.250000X0.475000X0.250000X0*%
%ADD18RoundRect,0.150000X0.150000X-0.587500X0.150000X0.587500X-0.150000X0.587500X-0.150000X-0.587500X0*%
%ADD19R,1.524000X1.524000*%
%ADD20C,1.524000*%
%ADD21RoundRect,0.200000X0.200000X0.275000X-0.200000X0.275000X-0.200000X-0.275000X0.200000X-0.275000X0*%
%ADD22RoundRect,0.150000X0.875000X0.150000X-0.875000X0.150000X-0.875000X-0.150000X0.875000X-0.150000X0*%
G04 APERTURE END LIST*
D10*
%TO.C,U2*%
X117200000Y-79500000D03*
D11*
X117200000Y-82042400D03*
X117195000Y-84582400D03*
X117195000Y-87122400D03*
X117200000Y-89662400D03*
X138800000Y-89662400D03*
X138795000Y-87122400D03*
X138795000Y-84582400D03*
X138800000Y-82042400D03*
X138800000Y-79500000D03*
%TD*%
D12*
%TO.C,J3*%
X156500000Y-78500000D03*
%TD*%
%TO.C,J2*%
X100500000Y-72000000D03*
%TD*%
D10*
%TO.C,U3*%
X117200000Y-58900000D03*
D11*
X117200000Y-61442400D03*
X117195000Y-63982400D03*
X117195000Y-66522400D03*
X117200000Y-69062400D03*
X138800000Y-69062400D03*
X138795000Y-66522400D03*
X138795000Y-63982400D03*
X138800000Y-61442400D03*
X138800000Y-58900000D03*
%TD*%
D13*
%TO.C,D2*%
X104401561Y-99901561D03*
D14*
X102605510Y-98105510D03*
%TD*%
D13*
%TO.C,Q6*%
X154401562Y-49901562D03*
D14*
X152605511Y-48105511D03*
%TD*%
D12*
%TO.C,J4*%
X107900000Y-57300000D03*
D15*
X107900000Y-59840000D03*
X107900000Y-62380000D03*
X107900000Y-64920000D03*
X107900000Y-67460000D03*
%TD*%
D12*
%TO.C,J1*%
X107900000Y-73900000D03*
D15*
X107900000Y-76440000D03*
%TD*%
D16*
%TO.C,C1*%
X121412000Y-73634000D03*
X121412000Y-75184000D03*
%TD*%
D17*
%TO.C,C2*%
X119380000Y-73284000D03*
X119380000Y-75184000D03*
%TD*%
D18*
%TO.C,Q3*%
X128450000Y-91937500D03*
X126550000Y-91937500D03*
X127500000Y-90062500D03*
%TD*%
D19*
%TO.C,BZ1*%
X134823200Y-52324000D03*
D20*
X129336800Y-52324000D03*
%TD*%
D21*
%TO.C,R11*%
X134825000Y-93000000D03*
X133175000Y-93000000D03*
%TD*%
D22*
%TO.C,U1*%
X132920000Y-63500000D03*
X132920000Y-64770000D03*
X132920000Y-66040000D03*
X132920000Y-67310000D03*
X132920000Y-68580000D03*
X132920000Y-69850000D03*
X132920000Y-71120000D03*
X132920000Y-72390000D03*
X132920000Y-73660000D03*
X132920000Y-74930000D03*
X132920000Y-76200000D03*
X132920000Y-77470000D03*
X132920000Y-78740000D03*
X132920000Y-80010000D03*
X123620000Y-80010000D03*
X123620000Y-78740000D03*
X123620000Y-77470000D03*
X123620000Y-76200000D03*
X123620000Y-74930000D03*
X123620000Y-73660000D03*
X123620000Y-72390000D03*
X123620000Y-71120000D03*
X123620000Y-69850000D03*
X123620000Y-68580000D03*
X123620000Y-67310000D03*
X123620000Y-66040000D03*
X123620000Y-64770000D03*
X123620000Y-63500000D03*
%TD*%
M02*
