M48
; DRILL file {KiCad 8.0.1} date 2024-04-22T14:35:32+0300
; FORMAT={-:-/ absolute / inch / decimal}
; #@! TF.CreationDate,2024-04-22T14:35:32+03:00
; #@! TF.GenerationSoftware,Kicad,Pcbnew,8.0.1
; #@! TF.FileFunction,Plated,1,2,PTH
FMAT,2
INCH
; #@! TA.AperFunction,Plated,PTH,ViaDrill
T1C0.0157
; #@! TA.AperFunction,Plated,PTH,ViaDrill
T2C0.0236
; #@! TA.AperFunction,Plated,PTH,ComponentDrill
T3C0.0300
; #@! TA.AperFunction,Plated,PTH,ComponentDrill
T4C0.0315
; #@! TA.AperFunction,Plated,PTH,ComponentDrill
T5C0.0354
; #@! TA.AperFunction,Plated,PTH,ComponentDrill
T6C0.0394
%
G90
G05
T1
X4.1063Y-3.5315
X4.2598Y-3.5315
X4.3307Y-2.2126
X4.3307Y-2.2992
X4.3543Y-3.1969
X4.3583Y-3.1378
X4.3661Y-2.2126
X4.3661Y-2.2992
X4.3976Y-3.2362
X4.4016Y-2.2126
X4.4016Y-2.2992
X4.437Y-2.2126
X4.437Y-2.2992
X4.4409Y-3.4449
X4.4803Y-3.1969
X4.4921Y-2.7677
X4.5236Y-3.5472
X4.685Y-2.0472
X4.7323Y-2.3189
X4.7835Y-2.3504
X4.7913Y-2.6496
X4.7953Y-2.5866
X4.9291Y-2.685
X4.9409Y-3.0118
X4.9695Y-3.0512
X4.9843Y-2.3474
X4.998Y-3.1102
X5.0266Y-3.1496
X5.0719Y-3.1496
X5.0787Y-2.7165
X5.0787Y-2.7559
X5.0787Y-2.7953
X5.0787Y-2.8346
X5.0787Y-2.874
X5.092Y-2.2844
X5.1004Y-3.1102
X5.1181Y-3.6142
X5.1181Y-3.7126
X5.1289Y-3.0512
X5.1535Y-3.6142
X5.1535Y-3.7126
X5.1575Y-2.6102
X5.1575Y-3.0118
X5.189Y-3.6142
X5.189Y-3.7126
X5.3031Y-2.6299
X5.3071Y-2.9961
X5.311Y-2.5827
X5.3346Y-2.7165
X5.3346Y-2.7559
X5.3346Y-2.7953
X5.3346Y-2.8346
X5.3346Y-2.874
X5.3504Y-2.6693
X5.3543Y-2.3701
X5.6299Y-3.4449
X5.6693Y-3.248
X5.7283Y-3.1299
X5.7992Y-2.622
T2
X4.4291Y-3.6732
X4.9685Y-2.4213
X5.1378Y-2.5197
X5.1654Y-3.3465
X5.3661Y-3.3465
X5.8583Y-2.5472
X5.9685Y-2.5591
X5.9685Y-2.6732
T3
X5.092Y-2.06
X5.308Y-2.06
T4
X4.614Y-2.519
X4.614Y-2.619
X4.614Y-3.33
X4.614Y-3.43
X4.6142Y-2.3189
X4.6142Y-2.419
X4.6142Y-2.719
X4.6142Y-3.1299
X4.6142Y-3.23
X4.6142Y-3.53
X5.4644Y-2.519
X5.4644Y-2.619
X5.4644Y-3.33
X5.4644Y-3.43
X5.4646Y-2.3189
X5.4646Y-2.419
X5.4646Y-2.719
X5.4646Y-3.1299
X5.4646Y-3.23
X5.4646Y-3.53
T5
X4.0396Y-3.8624
X4.1103Y-3.9331
X6.0081Y-1.8939
X6.0788Y-1.9646
T6
X3.9567Y-2.8346
X4.248Y-2.2559
X4.248Y-2.3559
X4.248Y-2.4559
X4.248Y-2.5559
X4.248Y-2.6559
X4.248Y-2.9094
X4.248Y-3.0094
X6.1614Y-3.0906
M30
