%TF.GenerationSoftware,KiCad,Pcbnew,8.0.1*%
%TF.CreationDate,2024-04-22T14:35:34+03:00*%
%TF.ProjectId,Zar Electronic,5a617220-456c-4656-9374-726f6e69632e,rev?*%
%TF.SameCoordinates,Original*%
%TF.FileFunction,Soldermask,Top*%
%TF.FilePolarity,Negative*%
%FSLAX46Y46*%
G04 Gerber Fmt 4.6, Leading zero omitted, Abs format (unit mm)*
G04 Created by KiCad (PCBNEW 8.0.1) date 2024-04-22 14:35:34*
%MOMM*%
%LPD*%
G01*
G04 APERTURE LIST*
G04 Aperture macros list*
%AMRoundRect*
0 Rectangle with rounded corners*
0 $1 Rounding radius*
0 $2 $3 $4 $5 $6 $7 $8 $9 X,Y pos of 4 corners*
0 Add a 4 corners polygon primitive as box body*
4,1,4,$2,$3,$4,$5,$6,$7,$8,$9,$2,$3,0*
0 Add four circle primitives for the rounded corners*
1,1,$1+$1,$2,$3*
1,1,$1+$1,$4,$5*
1,1,$1+$1,$6,$7*
1,1,$1+$1,$8,$9*
0 Add four rect primitives between the rounded corners*
20,1,$1+$1,$2,$3,$4,$5,0*
20,1,$1+$1,$4,$5,$6,$7,0*
20,1,$1+$1,$6,$7,$8,$9,0*
20,1,$1+$1,$8,$9,$2,$3,0*%
%AMRotRect*
0 Rectangle, with rotation*
0 The origin of the aperture is its center*
0 $1 length*
0 $2 width*
0 $3 Rotation angle, in degrees counterclockwise*
0 Add horizontal line*
21,1,$1,$2,0,0,$3*%
G04 Aperture macros list end*
%ADD10RoundRect,0.200000X-0.200000X-0.275000X0.200000X-0.275000X0.200000X0.275000X-0.200000X0.275000X0*%
%ADD11RoundRect,0.150000X-0.150000X0.587500X-0.150000X-0.587500X0.150000X-0.587500X0.150000X0.587500X0*%
%ADD12RoundRect,0.200000X0.200000X0.275000X-0.200000X0.275000X-0.200000X-0.275000X0.200000X-0.275000X0*%
%ADD13R,2.524000X1.524000*%
%ADD14O,2.524000X1.524000*%
%ADD15R,1.700000X1.700000*%
%ADD16R,1.550000X1.300000*%
%ADD17RoundRect,0.200000X0.275000X-0.200000X0.275000X0.200000X-0.275000X0.200000X-0.275000X-0.200000X0*%
%ADD18RoundRect,0.150000X0.150000X-0.587500X0.150000X0.587500X-0.150000X0.587500X-0.150000X-0.587500X0*%
%ADD19RotRect,1.800000X1.800000X135.000000*%
%ADD20C,1.800000*%
%ADD21O,1.700000X1.700000*%
%ADD22R,1.524000X1.524000*%
%ADD23C,1.524000*%
G04 APERTURE END LIST*
D10*
%TO.C,R4*%
X121175000Y-82500000D03*
X122825000Y-82500000D03*
%TD*%
D11*
%TO.C,Q7*%
X107100000Y-86000000D03*
X105200000Y-86000000D03*
X106150000Y-87875000D03*
%TD*%
D12*
%TO.C,R1*%
X135325000Y-87000000D03*
X133675000Y-87000000D03*
%TD*%
D13*
%TO.C,U2*%
X117200000Y-79500000D03*
D14*
X117200000Y-82042400D03*
X117195000Y-84582400D03*
X117195000Y-87122400D03*
X117200000Y-89662400D03*
X138800000Y-89662400D03*
X138795000Y-87122400D03*
X138795000Y-84582400D03*
X138800000Y-82042400D03*
X138800000Y-79500000D03*
%TD*%
D12*
%TO.C,R7*%
X135325000Y-79500000D03*
X133675000Y-79500000D03*
%TD*%
D15*
%TO.C,J3*%
X156500000Y-78500000D03*
%TD*%
D16*
%TO.C,SW1*%
X114897000Y-47534000D03*
X122847000Y-47534000D03*
X114897000Y-52034000D03*
X122847000Y-52034000D03*
%TD*%
D11*
%TO.C,Q8*%
X152550000Y-59962500D03*
X150650000Y-59962500D03*
X151600000Y-61837500D03*
%TD*%
D10*
%TO.C,R8*%
X121175000Y-90000000D03*
X122825000Y-90000000D03*
%TD*%
D15*
%TO.C,J2*%
X100500000Y-72000000D03*
%TD*%
D10*
%TO.C,R5*%
X121175000Y-79500000D03*
X122825000Y-79500000D03*
%TD*%
D17*
%TO.C,R14*%
X110400000Y-90325000D03*
X110400000Y-88675000D03*
%TD*%
D13*
%TO.C,U3*%
X117200000Y-58900000D03*
D14*
X117200000Y-61442400D03*
X117195000Y-63982400D03*
X117195000Y-66522400D03*
X117200000Y-69062400D03*
X138800000Y-69062400D03*
X138795000Y-66522400D03*
X138795000Y-63982400D03*
X138800000Y-61442400D03*
X138800000Y-58900000D03*
%TD*%
D17*
%TO.C,R13*%
X147600000Y-60525000D03*
X147600000Y-58875000D03*
%TD*%
D10*
%TO.C,R12*%
X109675000Y-85600000D03*
X111325000Y-85600000D03*
%TD*%
D12*
%TO.C,R6*%
X135325000Y-82500000D03*
X133675000Y-82500000D03*
%TD*%
D18*
%TO.C,Q1*%
X127050000Y-63937500D03*
X128950000Y-63937500D03*
X128000000Y-62062500D03*
%TD*%
D19*
%TO.C,D2*%
X104401561Y-99901561D03*
D20*
X102605510Y-98105510D03*
%TD*%
D19*
%TO.C,Q6*%
X154401562Y-49901562D03*
D20*
X152605511Y-48105511D03*
%TD*%
D15*
%TO.C,J4*%
X107900000Y-57300000D03*
D21*
X107900000Y-59840000D03*
X107900000Y-62380000D03*
X107900000Y-64920000D03*
X107900000Y-67460000D03*
%TD*%
D18*
%TO.C,Q9*%
X105350000Y-82437500D03*
X107250000Y-82437500D03*
X106300000Y-80562500D03*
%TD*%
D12*
%TO.C,R2*%
X135325000Y-90000000D03*
X133675000Y-90000000D03*
%TD*%
%TO.C,R9*%
X129325000Y-67500000D03*
X127675000Y-67500000D03*
%TD*%
D10*
%TO.C,R3*%
X121175000Y-87500000D03*
X122825000Y-87500000D03*
%TD*%
D15*
%TO.C,J1*%
X107900000Y-73900000D03*
D21*
X107900000Y-76440000D03*
%TD*%
D22*
%TO.C,BZ1*%
X134823200Y-52324000D03*
D23*
X129336800Y-52324000D03*
%TD*%
M02*
