%TF.GenerationSoftware,KiCad,Pcbnew,8.0.1*%
%TF.CreationDate,2024-04-22T14:35:34+03:00*%
%TF.ProjectId,Zar Electronic,5a617220-456c-4656-9374-726f6e69632e,rev?*%
%TF.SameCoordinates,Original*%
%TF.FileFunction,Copper,L1,Top*%
%TF.FilePolarity,Positive*%
%FSLAX46Y46*%
G04 Gerber Fmt 4.6, Leading zero omitted, Abs format (unit mm)*
G04 Created by KiCad (PCBNEW 8.0.1) date 2024-04-22 14:35:34*
%MOMM*%
%LPD*%
G01*
G04 APERTURE LIST*
G04 Aperture macros list*
%AMRoundRect*
0 Rectangle with rounded corners*
0 $1 Rounding radius*
0 $2 $3 $4 $5 $6 $7 $8 $9 X,Y pos of 4 corners*
0 Add a 4 corners polygon primitive as box body*
4,1,4,$2,$3,$4,$5,$6,$7,$8,$9,$2,$3,0*
0 Add four circle primitives for the rounded corners*
1,1,$1+$1,$2,$3*
1,1,$1+$1,$4,$5*
1,1,$1+$1,$6,$7*
1,1,$1+$1,$8,$9*
0 Add four rect primitives between the rounded corners*
20,1,$1+$1,$2,$3,$4,$5,0*
20,1,$1+$1,$4,$5,$6,$7,0*
20,1,$1+$1,$6,$7,$8,$9,0*
20,1,$1+$1,$8,$9,$2,$3,0*%
%AMRotRect*
0 Rectangle, with rotation*
0 The origin of the aperture is its center*
0 $1 length*
0 $2 width*
0 $3 Rotation angle, in degrees counterclockwise*
0 Add horizontal line*
21,1,$1,$2,0,0,$3*%
G04 Aperture macros list end*
%TA.AperFunction,SMDPad,CuDef*%
%ADD10RoundRect,0.200000X-0.200000X-0.275000X0.200000X-0.275000X0.200000X0.275000X-0.200000X0.275000X0*%
%TD*%
%TA.AperFunction,SMDPad,CuDef*%
%ADD11RoundRect,0.150000X-0.150000X0.587500X-0.150000X-0.587500X0.150000X-0.587500X0.150000X0.587500X0*%
%TD*%
%TA.AperFunction,SMDPad,CuDef*%
%ADD12RoundRect,0.200000X0.200000X0.275000X-0.200000X0.275000X-0.200000X-0.275000X0.200000X-0.275000X0*%
%TD*%
%TA.AperFunction,ComponentPad*%
%ADD13R,2.524000X1.524000*%
%TD*%
%TA.AperFunction,ComponentPad*%
%ADD14O,2.524000X1.524000*%
%TD*%
%TA.AperFunction,ComponentPad*%
%ADD15R,1.700000X1.700000*%
%TD*%
%TA.AperFunction,SMDPad,CuDef*%
%ADD16R,1.550000X1.300000*%
%TD*%
%TA.AperFunction,SMDPad,CuDef*%
%ADD17RoundRect,0.200000X0.275000X-0.200000X0.275000X0.200000X-0.275000X0.200000X-0.275000X-0.200000X0*%
%TD*%
%TA.AperFunction,SMDPad,CuDef*%
%ADD18RoundRect,0.150000X0.150000X-0.587500X0.150000X0.587500X-0.150000X0.587500X-0.150000X-0.587500X0*%
%TD*%
%TA.AperFunction,ComponentPad*%
%ADD19RotRect,1.800000X1.800000X135.000000*%
%TD*%
%TA.AperFunction,ComponentPad*%
%ADD20C,1.800000*%
%TD*%
%TA.AperFunction,ComponentPad*%
%ADD21O,1.700000X1.700000*%
%TD*%
%TA.AperFunction,ComponentPad*%
%ADD22R,1.524000X1.524000*%
%TD*%
%TA.AperFunction,ComponentPad*%
%ADD23C,1.524000*%
%TD*%
%TA.AperFunction,ViaPad*%
%ADD24C,0.800000*%
%TD*%
%TA.AperFunction,ViaPad*%
%ADD25C,1.200000*%
%TD*%
%TA.AperFunction,Conductor*%
%ADD26C,0.700000*%
%TD*%
%TA.AperFunction,Conductor*%
%ADD27C,0.250000*%
%TD*%
%TA.AperFunction,Conductor*%
%ADD28C,0.500000*%
%TD*%
G04 APERTURE END LIST*
D10*
%TO.P,R4,1*%
%TO.N,/D*%
X121175000Y-82500000D03*
%TO.P,R4,2*%
%TO.N,/sD*%
X122825000Y-82500000D03*
%TD*%
D11*
%TO.P,Q7,1,B*%
%TO.N,Net-(Q7-B)*%
X107100000Y-86000000D03*
%TO.P,Q7,2,E*%
%TO.N,Net-(Q7-E)*%
X105200000Y-86000000D03*
%TO.P,Q7,3,C*%
%TO.N,Net-(D2-K)*%
X106150000Y-87875000D03*
%TD*%
D12*
%TO.P,R1,1*%
%TO.N,/A*%
X135325000Y-87000000D03*
%TO.P,R1,2*%
%TO.N,/sA*%
X133675000Y-87000000D03*
%TD*%
D13*
%TO.P,U2,1,E*%
%TO.N,/E*%
X117200000Y-79500000D03*
D14*
%TO.P,U2,2,D*%
%TO.N,/D*%
X117200000Y-82042400D03*
%TO.P,U2,3,CC*%
%TO.N,Net-(Q3-C)*%
X117195000Y-84582400D03*
%TO.P,U2,4,C*%
%TO.N,/C*%
X117195000Y-87122400D03*
%TO.P,U2,5,DP*%
%TO.N,/DP*%
X117200000Y-89662400D03*
%TO.P,U2,6,B*%
%TO.N,/B*%
X138800000Y-89662400D03*
%TO.P,U2,7,A*%
%TO.N,/A*%
X138795000Y-87122400D03*
%TO.P,U2,8,CC*%
%TO.N,Net-(Q3-C)*%
X138795000Y-84582400D03*
%TO.P,U2,9,F*%
%TO.N,/F*%
X138800000Y-82042400D03*
%TO.P,U2,10,G*%
%TO.N,/G*%
X138800000Y-79500000D03*
%TD*%
D12*
%TO.P,R7,1*%
%TO.N,/G*%
X135325000Y-79500000D03*
%TO.P,R7,2*%
%TO.N,/sG*%
X133675000Y-79500000D03*
%TD*%
D15*
%TO.P,J3,1,Pin_1*%
%TO.N,Net-(J3-Pin_1)*%
X156500000Y-78500000D03*
%TD*%
D16*
%TO.P,SW1,1,1*%
%TO.N,Net-(U1-RB3)*%
X114897000Y-47534000D03*
X122847000Y-47534000D03*
%TO.P,SW1,2,2*%
%TO.N,GND*%
X114897000Y-52034000D03*
X122847000Y-52034000D03*
%TD*%
D11*
%TO.P,Q8,1,B*%
%TO.N,/DAC*%
X152550000Y-59962500D03*
%TO.P,Q8,2,E*%
%TO.N,Net-(Q6-C)*%
X150650000Y-59962500D03*
%TO.P,Q8,3,C*%
%TO.N,/VDD*%
X151600000Y-61837500D03*
%TD*%
D10*
%TO.P,R8,1*%
%TO.N,/DP*%
X121175000Y-90000000D03*
%TO.P,R8,2*%
%TO.N,/sDP*%
X122825000Y-90000000D03*
%TD*%
D15*
%TO.P,J2,1,Pin_1*%
%TO.N,Net-(J2-Pin_1)*%
X100500000Y-72000000D03*
%TD*%
D10*
%TO.P,R5,1*%
%TO.N,/E*%
X121175000Y-79500000D03*
%TO.P,R5,2*%
%TO.N,/sE*%
X122825000Y-79500000D03*
%TD*%
D17*
%TO.P,R14,1*%
%TO.N,GND*%
X110400000Y-90325000D03*
%TO.P,R14,2*%
%TO.N,Net-(Q7-E)*%
X110400000Y-88675000D03*
%TD*%
D13*
%TO.P,U3,1,E*%
%TO.N,/E*%
X117200000Y-58900000D03*
D14*
%TO.P,U3,2,D*%
%TO.N,/D*%
X117200000Y-61442400D03*
%TO.P,U3,3,CC*%
%TO.N,Net-(Q1-C)*%
X117195000Y-63982400D03*
%TO.P,U3,4,C*%
%TO.N,/C*%
X117195000Y-66522400D03*
%TO.P,U3,5,DP*%
%TO.N,/DP*%
X117200000Y-69062400D03*
%TO.P,U3,6,B*%
%TO.N,/B*%
X138800000Y-69062400D03*
%TO.P,U3,7,A*%
%TO.N,/A*%
X138795000Y-66522400D03*
%TO.P,U3,8,CC*%
%TO.N,Net-(Q1-C)*%
X138795000Y-63982400D03*
%TO.P,U3,9,F*%
%TO.N,/F*%
X138800000Y-61442400D03*
%TO.P,U3,10,G*%
%TO.N,/G*%
X138800000Y-58900000D03*
%TD*%
D17*
%TO.P,R13,1*%
%TO.N,GND*%
X147600000Y-60525000D03*
%TO.P,R13,2*%
%TO.N,/ADC*%
X147600000Y-58875000D03*
%TD*%
D10*
%TO.P,R12,1*%
%TO.N,/IR_EN*%
X109675000Y-85600000D03*
%TO.P,R12,2*%
%TO.N,Net-(Q7-B)*%
X111325000Y-85600000D03*
%TD*%
D12*
%TO.P,R6,1*%
%TO.N,/F*%
X135325000Y-82500000D03*
%TO.P,R6,2*%
%TO.N,/sF*%
X133675000Y-82500000D03*
%TD*%
D18*
%TO.P,Q1,1,B*%
%TO.N,Net-(Q1-B)*%
X127050000Y-63937500D03*
%TO.P,Q1,2,E*%
%TO.N,GND*%
X128950000Y-63937500D03*
%TO.P,Q1,3,C*%
%TO.N,Net-(Q1-C)*%
X128000000Y-62062500D03*
%TD*%
D19*
%TO.P,D2,1,K*%
%TO.N,Net-(D2-K)*%
X104401561Y-99901561D03*
D20*
%TO.P,D2,2,A*%
%TO.N,/VDD*%
X102605510Y-98105510D03*
%TD*%
D19*
%TO.P,Q6,1,C*%
%TO.N,Net-(Q6-C)*%
X154401562Y-49901562D03*
D20*
%TO.P,Q6,2,E*%
%TO.N,/ADC*%
X152605511Y-48105511D03*
%TD*%
D15*
%TO.P,J4,1,Pin_1*%
%TO.N,/MCLR*%
X107900000Y-57300000D03*
D21*
%TO.P,J4,2,Pin_2*%
%TO.N,/VDD*%
X107900000Y-59840000D03*
%TO.P,J4,3,Pin_3*%
%TO.N,GND*%
X107900000Y-62380000D03*
%TO.P,J4,4,Pin_4*%
%TO.N,/PGD*%
X107900000Y-64920000D03*
%TO.P,J4,5,Pin_5*%
%TO.N,/PGC*%
X107900000Y-67460000D03*
%TD*%
D18*
%TO.P,Q9,1,B*%
%TO.N,Net-(Q7-E)*%
X105350000Y-82437500D03*
%TO.P,Q9,2,E*%
%TO.N,GND*%
X107250000Y-82437500D03*
%TO.P,Q9,3,C*%
%TO.N,Net-(Q7-B)*%
X106300000Y-80562500D03*
%TD*%
D12*
%TO.P,R2,1*%
%TO.N,/B*%
X135325000Y-90000000D03*
%TO.P,R2,2*%
%TO.N,/sB*%
X133675000Y-90000000D03*
%TD*%
%TO.P,R9,1*%
%TO.N,/PWM2*%
X129325000Y-67500000D03*
%TO.P,R9,2*%
%TO.N,Net-(Q1-B)*%
X127675000Y-67500000D03*
%TD*%
D10*
%TO.P,R3,1*%
%TO.N,/C*%
X121175000Y-87500000D03*
%TO.P,R3,2*%
%TO.N,/sC*%
X122825000Y-87500000D03*
%TD*%
D15*
%TO.P,J1,1,Pin_1*%
%TO.N,/VDD*%
X107900000Y-73900000D03*
D21*
%TO.P,J1,2,Pin_2*%
%TO.N,GND*%
X107900000Y-76440000D03*
%TD*%
D22*
%TO.P,BZ1,1,-*%
%TO.N,Net-(BZ1--)*%
X134823200Y-52324000D03*
D23*
%TO.P,BZ1,2,+*%
%TO.N,Net-(BZ1-+)*%
X129336800Y-52324000D03*
%TD*%
D24*
%TO.N,GND*%
X131800000Y-94300000D03*
X130900000Y-94300000D03*
X130000000Y-94300000D03*
X131800000Y-91800000D03*
X130900000Y-91800000D03*
X130000000Y-91800000D03*
X110900000Y-56200000D03*
X111800000Y-56200000D03*
X112700000Y-56200000D03*
X110000000Y-56200000D03*
X112700000Y-58400000D03*
X111800000Y-58400000D03*
X110900000Y-58400000D03*
X110000000Y-58400000D03*
D25*
%TO.N,/VDD*%
X151600000Y-67900000D03*
X151600000Y-65000000D03*
D24*
%TO.N,GND*%
X129000000Y-70000000D03*
X135500000Y-70000000D03*
X135500000Y-69000000D03*
X129000000Y-73000000D03*
D25*
X148800000Y-64700000D03*
X112500000Y-93300000D03*
D24*
X135500000Y-73000000D03*
X119000000Y-52000000D03*
X129000000Y-71000000D03*
X129000000Y-72000000D03*
X135500000Y-72000000D03*
X135500000Y-71000000D03*
D25*
X130500000Y-64000000D03*
D24*
X129000000Y-69000000D03*
D25*
%TO.N,Net-(Q1-C)*%
X126200000Y-61500000D03*
%TO.N,Net-(Q3-C)*%
X136300000Y-85000000D03*
X131200000Y-85000000D03*
D24*
%TO.N,/A*%
X143000000Y-87500000D03*
%TO.N,/sA*%
X129550000Y-79000000D03*
%TO.N,/sB*%
X128825000Y-80000000D03*
%TO.N,/sC*%
X126950000Y-79000000D03*
%TO.N,/C*%
X112800000Y-87500000D03*
%TO.N,/sD*%
X126225000Y-77500000D03*
%TO.N,/D*%
X111700000Y-82200000D03*
%TO.N,/E*%
X110700000Y-79700000D03*
%TO.N,/sE*%
X125500000Y-76500000D03*
%TO.N,/sF*%
X130275000Y-77500000D03*
%TO.N,/F*%
X144000000Y-82500000D03*
%TO.N,/G*%
X145500000Y-79500000D03*
%TO.N,/sG*%
X131000000Y-76500000D03*
%TO.N,/sDP*%
X127675000Y-80000000D03*
%TO.N,/DP*%
X114900000Y-90100000D03*
%TO.N,/PWM2*%
X131000000Y-66300000D03*
%TO.N,/PWM1*%
X134900000Y-65600000D03*
X134800000Y-76100000D03*
%TO.N,Net-(U1-RB3)*%
X125200000Y-68200000D03*
%TO.N,Net-(BZ1-+)*%
X121700000Y-67300000D03*
X129336800Y-58025000D03*
X120200000Y-58900000D03*
%TO.N,Net-(BZ1--)*%
X126600000Y-59625000D03*
X121800000Y-65700000D03*
X121500000Y-59700000D03*
%TO.N,Net-(Q7-E)*%
X104300000Y-89700000D03*
X108200000Y-89700000D03*
%TO.N,/ADC*%
X136000000Y-60200000D03*
%TO.N,/IR_EN*%
X113800000Y-81200000D03*
X110600000Y-81200000D03*
X114100000Y-70300000D03*
%TO.N,/DAC*%
X134699847Y-66799847D03*
X147300000Y-66600000D03*
X135900000Y-67800000D03*
%TD*%
D26*
%TO.N,/VDD*%
X101300000Y-99411020D02*
X102605510Y-98105510D01*
X101300000Y-101400000D02*
X101300000Y-99411020D01*
X102000000Y-102100000D02*
X101300000Y-101400000D01*
X141000000Y-102100000D02*
X102000000Y-102100000D01*
X151500000Y-68000000D02*
X151500000Y-91600000D01*
X151600000Y-67900000D02*
X151500000Y-68000000D01*
X151500000Y-91600000D02*
X141000000Y-102100000D01*
D27*
%TO.N,/E*%
X110400000Y-62800000D02*
X114526000Y-58674000D01*
X114526000Y-58674000D02*
X117084000Y-58674000D01*
X110400000Y-78900000D02*
X110400000Y-62800000D01*
X110700000Y-79200000D02*
X110400000Y-78900000D01*
X110700000Y-79700000D02*
X110700000Y-79200000D01*
D26*
%TO.N,/VDD*%
X101800000Y-77900000D02*
X105800000Y-73900000D01*
X102605510Y-98105510D02*
X102605510Y-93570510D01*
X102605510Y-93570510D02*
X101800000Y-92765000D01*
X105200000Y-62540000D02*
X105200000Y-73300000D01*
X151600000Y-61837500D02*
X151600000Y-65000000D01*
X105800000Y-73900000D02*
X107900000Y-73900000D01*
X105200000Y-73300000D02*
X105800000Y-73900000D01*
X107900000Y-59840000D02*
X105200000Y-62540000D01*
X101800000Y-92765000D02*
X101800000Y-77900000D01*
%TO.N,GND*%
X148700000Y-64100000D02*
X148700000Y-64600000D01*
X119034000Y-52034000D02*
X122847000Y-52034000D01*
X147600000Y-63000000D02*
X148700000Y-64100000D01*
X114897000Y-52034000D02*
X118966000Y-52034000D01*
X108500000Y-81300000D02*
X108500000Y-77040000D01*
X108387500Y-81300000D02*
X108500000Y-81300000D01*
X110400000Y-91200000D02*
X112500000Y-93300000D01*
X148700000Y-64600000D02*
X148800000Y-64700000D01*
D28*
X128950000Y-63937500D02*
X130437500Y-63937500D01*
D26*
X119000000Y-52000000D02*
X119034000Y-52034000D01*
X108500000Y-77040000D02*
X107900000Y-76440000D01*
X118966000Y-52034000D02*
X119000000Y-52000000D01*
X107250000Y-82437500D02*
X108387500Y-81300000D01*
D28*
X130437500Y-63937500D02*
X130500000Y-64000000D01*
D26*
X110400000Y-90325000D02*
X110400000Y-91200000D01*
X147600000Y-60525000D02*
X147600000Y-63000000D01*
%TO.N,Net-(Q1-C)*%
X126762500Y-62062500D02*
X126200000Y-61500000D01*
X128000000Y-62062500D02*
X135862500Y-62062500D01*
X128000000Y-62062500D02*
X126762500Y-62062500D01*
X135862500Y-62062500D02*
X137706400Y-63906400D01*
X137706400Y-63906400D02*
X138684000Y-63906400D01*
D27*
%TO.N,Net-(Q1-B)*%
X127100000Y-65600000D02*
X127050000Y-65550000D01*
X127050000Y-65550000D02*
X127050000Y-63937500D01*
X127100000Y-65800000D02*
X127100000Y-65600000D01*
X127675000Y-67500000D02*
X127675000Y-66375000D01*
X127675000Y-66375000D02*
X127100000Y-65800000D01*
D26*
%TO.N,Net-(Q3-C)*%
X135500000Y-85000000D02*
X131200000Y-85000000D01*
X136300000Y-85000000D02*
X135500000Y-85000000D01*
D27*
%TO.N,/A*%
X138130000Y-87000000D02*
X138684000Y-87554000D01*
X141992800Y-66496400D02*
X138684000Y-66496400D01*
X135325000Y-87000000D02*
X138130000Y-87000000D01*
X143000000Y-67503600D02*
X141992800Y-66496400D01*
X143000000Y-87500000D02*
X143000000Y-67503600D01*
%TO.N,/sA*%
X129550000Y-85550000D02*
X131000000Y-87000000D01*
X131000000Y-87000000D02*
X133675000Y-87000000D01*
X129550000Y-79000000D02*
X129550000Y-85550000D01*
%TO.N,/sB*%
X131500000Y-90000000D02*
X133675000Y-90000000D01*
X128825000Y-87325000D02*
X131500000Y-90000000D01*
X128825000Y-80000000D02*
X128825000Y-87325000D01*
%TO.N,/B*%
X138462400Y-90000000D02*
X138800000Y-89662400D01*
X141000000Y-69500000D02*
X140588000Y-69088000D01*
X140837600Y-89662400D02*
X141000000Y-89500000D01*
X140588000Y-69088000D02*
X138684000Y-69088000D01*
X135325000Y-90000000D02*
X138462400Y-90000000D01*
X141000000Y-89500000D02*
X141000000Y-69500000D01*
X138800000Y-89662400D02*
X140837600Y-89662400D01*
%TO.N,/sC*%
X125000000Y-87500000D02*
X122825000Y-87500000D01*
X126950000Y-79000000D02*
X126950000Y-85550000D01*
X126950000Y-85550000D02*
X125000000Y-87500000D01*
%TO.N,/C*%
X112800000Y-87500000D02*
X112800000Y-67800000D01*
X117084000Y-87233400D02*
X117084000Y-87554000D01*
X117195000Y-87122400D02*
X117084000Y-87233400D01*
X121175000Y-87500000D02*
X117572600Y-87500000D01*
X114103600Y-66496400D02*
X117084000Y-66496400D01*
X112800000Y-67800000D02*
X114103600Y-66496400D01*
X117572600Y-87500000D02*
X117195000Y-87122400D01*
%TO.N,/sD*%
X126225000Y-77500000D02*
X126225000Y-81775000D01*
X125500000Y-82500000D02*
X122825000Y-82500000D01*
X126225000Y-81775000D02*
X125500000Y-82500000D01*
%TO.N,/D*%
X121175000Y-82500000D02*
X118700000Y-82500000D01*
X111700000Y-82200000D02*
X111700000Y-63500000D01*
X117084000Y-82158400D02*
X117084000Y-82424000D01*
X118242400Y-82042400D02*
X117200000Y-82042400D01*
X111700000Y-63500000D02*
X113833600Y-61366400D01*
X118700000Y-82500000D02*
X118242400Y-82042400D01*
X113833600Y-61366400D02*
X117084000Y-61366400D01*
X117200000Y-82042400D02*
X117084000Y-82158400D01*
%TO.N,/E*%
X117084000Y-79616000D02*
X117084000Y-79731600D01*
X121175000Y-79500000D02*
X117200000Y-79500000D01*
X117200000Y-79500000D02*
X117084000Y-79616000D01*
%TO.N,/sE*%
X125500000Y-76500000D02*
X125500000Y-79000000D01*
X125000000Y-79500000D02*
X122825000Y-79500000D01*
X125500000Y-79000000D02*
X125000000Y-79500000D01*
%TO.N,/sF*%
X130275000Y-77500000D02*
X130275000Y-81275000D01*
X131500000Y-82500000D02*
X133675000Y-82500000D01*
X130275000Y-81275000D02*
X131500000Y-82500000D01*
%TO.N,/F*%
X144000000Y-82500000D02*
X144000000Y-63000000D01*
X144000000Y-63000000D02*
X142366400Y-61366400D01*
X142366400Y-61366400D02*
X138684000Y-61366400D01*
X138608000Y-82500000D02*
X138684000Y-82424000D01*
X135325000Y-82500000D02*
X138608000Y-82500000D01*
%TO.N,/G*%
X145500000Y-62000000D02*
X142174000Y-58674000D01*
X145500000Y-79500000D02*
X145500000Y-62000000D01*
X139031600Y-79731600D02*
X139768400Y-79731600D01*
X142174000Y-58674000D02*
X138684000Y-58674000D01*
X138800000Y-79500000D02*
X139031600Y-79731600D01*
X135325000Y-79500000D02*
X138800000Y-79500000D01*
%TO.N,/sG*%
X131500000Y-79500000D02*
X133675000Y-79500000D01*
X131000000Y-79000000D02*
X131500000Y-79500000D01*
X131000000Y-76500000D02*
X131000000Y-79000000D01*
%TO.N,/sDP*%
X127675000Y-88325000D02*
X126000000Y-90000000D01*
X127675000Y-80000000D02*
X127675000Y-88325000D01*
X126000000Y-90000000D02*
X122825000Y-90000000D01*
%TO.N,/DP*%
X121175000Y-90000000D02*
X117537600Y-90000000D01*
X117200000Y-89662400D02*
X117084000Y-89778400D01*
X117084000Y-89778400D02*
X117084000Y-90145600D01*
X114900000Y-90100000D02*
X114900000Y-71272000D01*
X117537600Y-90000000D02*
X117200000Y-89662400D01*
X114900000Y-71272000D02*
X117084000Y-69088000D01*
%TO.N,/PWM2*%
X129325000Y-67500000D02*
X129800000Y-67500000D01*
X129800000Y-67500000D02*
X131000000Y-66300000D01*
%TO.N,/PWM1*%
X137000000Y-67700000D02*
X134900000Y-65600000D01*
X137000000Y-73900000D02*
X137000000Y-67700000D01*
X134800000Y-76100000D02*
X137000000Y-73900000D01*
%TO.N,Net-(U1-RB3)*%
X125100000Y-68100000D02*
X125200000Y-68200000D01*
X124634000Y-47534000D02*
X125100000Y-48000000D01*
X122847000Y-47534000D02*
X124634000Y-47534000D01*
X125100000Y-48000000D02*
X125100000Y-68100000D01*
X114897000Y-47534000D02*
X122847000Y-47534000D01*
D26*
%TO.N,Net-(D2-K)*%
X106200000Y-92600000D02*
X106150000Y-92550000D01*
X106150000Y-92550000D02*
X106150000Y-87875000D01*
X104401561Y-94398439D02*
X106200000Y-92600000D01*
X104401561Y-99901561D02*
X104401561Y-94398439D01*
D27*
%TO.N,Net-(BZ1-+)*%
X129336800Y-58025000D02*
X129336800Y-52324000D01*
X120200000Y-65800000D02*
X121700000Y-67300000D01*
X120200000Y-58900000D02*
X120200000Y-65800000D01*
%TO.N,Net-(BZ1--)*%
X134823200Y-59076800D02*
X134400000Y-59500000D01*
X121500000Y-59700000D02*
X121500000Y-65400000D01*
X134823200Y-52324000D02*
X134823200Y-59076800D01*
X126725000Y-59500000D02*
X126600000Y-59625000D01*
X134400000Y-59500000D02*
X126725000Y-59500000D01*
X121500000Y-65400000D02*
X121800000Y-65700000D01*
%TO.N,Net-(Q6-C)*%
X150475000Y-59787500D02*
X150475000Y-53325000D01*
X150650000Y-59962500D02*
X150475000Y-59787500D01*
X150475000Y-53325000D02*
X153898438Y-49901562D01*
X153898438Y-49901562D02*
X154401562Y-49901562D01*
%TO.N,Net-(Q7-B)*%
X107100000Y-86000000D02*
X108000000Y-86900000D01*
X110800000Y-86900000D02*
X111325000Y-86375000D01*
X111325000Y-86375000D02*
X111325000Y-85600000D01*
X106300000Y-85200000D02*
X106300000Y-80562500D01*
X107100000Y-86000000D02*
X106300000Y-85200000D01*
X108000000Y-86900000D02*
X110800000Y-86900000D01*
D26*
%TO.N,Net-(Q7-E)*%
X103800000Y-87700000D02*
X103800000Y-89200000D01*
X105200000Y-86000000D02*
X103800000Y-87400000D01*
X103800000Y-89200000D02*
X104300000Y-89700000D01*
X109225000Y-88675000D02*
X110400000Y-88675000D01*
D27*
X103800000Y-87400000D02*
X103800000Y-87700000D01*
X105200000Y-82587500D02*
X105350000Y-82437500D01*
X105200000Y-86000000D02*
X105200000Y-82587500D01*
D26*
X108200000Y-89700000D02*
X109225000Y-88675000D01*
D27*
%TO.N,/ADC*%
X147600000Y-58875000D02*
X147935000Y-58540000D01*
X147935000Y-52776022D02*
X152605511Y-48105511D01*
X147935000Y-58540000D02*
X147935000Y-52776022D01*
X147600000Y-58875000D02*
X144575000Y-58875000D01*
X135900000Y-60000000D02*
X135900000Y-60100000D01*
X135900000Y-60100000D02*
X136000000Y-60200000D01*
X137800000Y-56700000D02*
X135900000Y-58600000D01*
X144575000Y-58875000D02*
X142900000Y-57200000D01*
X142900000Y-57200000D02*
X142400000Y-56700000D01*
X135900000Y-58600000D02*
X135900000Y-60000000D01*
X142400000Y-56700000D02*
X137800000Y-56700000D01*
%TO.N,/IR_EN*%
X113800000Y-70600000D02*
X114100000Y-70300000D01*
X109675000Y-82125000D02*
X110600000Y-81200000D01*
X113800000Y-81200000D02*
X113800000Y-70600000D01*
X109675000Y-85600000D02*
X109675000Y-82125000D01*
%TO.N,/DAC*%
X153700000Y-61100000D02*
X153700000Y-65500000D01*
X152550000Y-59962500D02*
X153687500Y-61100000D01*
X153700000Y-65500000D02*
X152600000Y-66600000D01*
X135700000Y-67800000D02*
X134699847Y-66799847D01*
X135900000Y-67800000D02*
X135700000Y-67800000D01*
X153687500Y-61100000D02*
X153700000Y-61100000D01*
X152600000Y-66600000D02*
X147300000Y-66600000D01*
%TD*%
%TA.AperFunction,Conductor*%
%TO.N,GND*%
G36*
X135358195Y-68519685D02*
G01*
X135364041Y-68523682D01*
X135447265Y-68584148D01*
X135447270Y-68584151D01*
X135620192Y-68661142D01*
X135620197Y-68661144D01*
X135805354Y-68700500D01*
X135805355Y-68700500D01*
X135876000Y-68700500D01*
X135943039Y-68720185D01*
X135988794Y-68772989D01*
X136000000Y-68824500D01*
X136000000Y-73376000D01*
X135980315Y-73443039D01*
X135927511Y-73488794D01*
X135876000Y-73500000D01*
X128624000Y-73500000D01*
X128556961Y-73480315D01*
X128511206Y-73427511D01*
X128500000Y-73376000D01*
X128500000Y-68624000D01*
X128519685Y-68556961D01*
X128572489Y-68511206D01*
X128624000Y-68500000D01*
X135291156Y-68500000D01*
X135358195Y-68519685D01*
G37*
%TD.AperFunction*%
%TD*%
%TA.AperFunction,Conductor*%
%TO.N,GND*%
G36*
X113043039Y-55719685D02*
G01*
X113088794Y-55772489D01*
X113100000Y-55824000D01*
X113100000Y-58676000D01*
X113080315Y-58743039D01*
X113027511Y-58788794D01*
X112976000Y-58800000D01*
X109724000Y-58800000D01*
X109656961Y-58780315D01*
X109611206Y-58727511D01*
X109600000Y-58676000D01*
X109600000Y-55824000D01*
X109619685Y-55756961D01*
X109672489Y-55711206D01*
X109724000Y-55700000D01*
X112976000Y-55700000D01*
X113043039Y-55719685D01*
G37*
%TD.AperFunction*%
%TD*%
%TA.AperFunction,Conductor*%
%TO.N,GND*%
G36*
X132143039Y-91419685D02*
G01*
X132188794Y-91472489D01*
X132200000Y-91524000D01*
X132200000Y-94576000D01*
X132180315Y-94643039D01*
X132127511Y-94688794D01*
X132076000Y-94700000D01*
X129724000Y-94700000D01*
X129656961Y-94680315D01*
X129611206Y-94627511D01*
X129600000Y-94576000D01*
X129600000Y-91524000D01*
X129619685Y-91456961D01*
X129672489Y-91411206D01*
X129724000Y-91400000D01*
X132076000Y-91400000D01*
X132143039Y-91419685D01*
G37*
%TD.AperFunction*%
%TD*%
%TA.AperFunction,Conductor*%
%TO.N,/VDD*%
G36*
X101784056Y-97765240D02*
G01*
X102601724Y-98102947D01*
X102608063Y-98109273D01*
X102608072Y-98109295D01*
X102945778Y-98926962D01*
X102945769Y-98935916D01*
X102940220Y-98941881D01*
X101587757Y-99621991D01*
X101578827Y-99622646D01*
X101574228Y-99619811D01*
X101091208Y-99136791D01*
X101087781Y-99128518D01*
X101089027Y-99123264D01*
X101769138Y-97770798D01*
X101775917Y-97764947D01*
X101784056Y-97765240D01*
G37*
%TD.AperFunction*%
%TD*%
%TA.AperFunction,Conductor*%
%TO.N,/VDD*%
G36*
X151602164Y-67899900D02*
G01*
X152144401Y-68125480D01*
X152150722Y-68131820D01*
X152151049Y-68139849D01*
X151852604Y-69071977D01*
X151846817Y-69078811D01*
X151841461Y-69080109D01*
X151160307Y-69080109D01*
X151152034Y-69076682D01*
X151148700Y-69069884D01*
X151030486Y-68139849D01*
X151001671Y-67913150D01*
X151004028Y-67904513D01*
X151011803Y-67900070D01*
X151013243Y-67899977D01*
X151597657Y-67899003D01*
X151602164Y-67899900D01*
G37*
%TD.AperFunction*%
%TD*%
%TA.AperFunction,Conductor*%
%TO.N,/E*%
G36*
X115943716Y-58141448D02*
G01*
X117182724Y-58888974D01*
X117188038Y-58896181D01*
X117186698Y-58905035D01*
X117181874Y-58909475D01*
X115945340Y-59522135D01*
X115936406Y-59522737D01*
X115932071Y-59520118D01*
X115179625Y-58802457D01*
X115176003Y-58794267D01*
X115176000Y-58793990D01*
X115176000Y-58555983D01*
X115179427Y-58547710D01*
X115182146Y-58545685D01*
X115932123Y-58141169D01*
X115941029Y-58140259D01*
X115943716Y-58141448D01*
G37*
%TD.AperFunction*%
%TD*%
%TA.AperFunction,Conductor*%
%TO.N,/E*%
G36*
X110583476Y-78908806D02*
G01*
X110584397Y-78909844D01*
X110715099Y-79076257D01*
X110976448Y-79409015D01*
X110978863Y-79417638D01*
X110975541Y-79424494D01*
X110704146Y-79697250D01*
X110695881Y-79700698D01*
X110695831Y-79700698D01*
X110313689Y-79700024D01*
X110305422Y-79696583D01*
X110302010Y-79688303D01*
X110302156Y-79686481D01*
X110343940Y-79424494D01*
X110398882Y-79080001D01*
X110402161Y-79073575D01*
X110566931Y-78908805D01*
X110575203Y-78905379D01*
X110583476Y-78908806D01*
G37*
%TD.AperFunction*%
%TD*%
%TA.AperFunction,Conductor*%
%TO.N,/VDD*%
G36*
X102955330Y-96308937D02*
G01*
X102958165Y-96313536D01*
X103433590Y-97750783D01*
X103432935Y-97759713D01*
X103426970Y-97765262D01*
X102609998Y-98104645D01*
X102601044Y-98104654D01*
X102601022Y-98104645D01*
X101784049Y-97765262D01*
X101777723Y-97758923D01*
X101777429Y-97750783D01*
X102252855Y-96313536D01*
X102258707Y-96306757D01*
X102263963Y-96305510D01*
X102947057Y-96305510D01*
X102955330Y-96308937D01*
G37*
%TD.AperFunction*%
%TD*%
%TA.AperFunction,Conductor*%
%TO.N,/VDD*%
G36*
X151948780Y-63803427D02*
G01*
X151951956Y-63809289D01*
X152152330Y-64760901D01*
X152150681Y-64769703D01*
X152145375Y-64774114D01*
X151604494Y-64999130D01*
X151595539Y-64999144D01*
X151595506Y-64999130D01*
X151054624Y-64774114D01*
X151048302Y-64767773D01*
X151047669Y-64760904D01*
X151248044Y-63809288D01*
X151253102Y-63801900D01*
X151259493Y-63800000D01*
X151940507Y-63800000D01*
X151948780Y-63803427D01*
G37*
%TD.AperFunction*%
%TD*%
%TA.AperFunction,Conductor*%
%TO.N,/VDD*%
G36*
X107056401Y-73056394D02*
G01*
X107892712Y-73891722D01*
X107896144Y-73899993D01*
X107892722Y-73908268D01*
X107892712Y-73908278D01*
X107056401Y-74743605D01*
X107048126Y-74747027D01*
X107042201Y-74745412D01*
X106205768Y-74253392D01*
X106200374Y-74246243D01*
X106200000Y-74243307D01*
X106200000Y-73556692D01*
X106203427Y-73548419D01*
X106205768Y-73546607D01*
X107042202Y-73054586D01*
X107051069Y-73053346D01*
X107056401Y-73056394D01*
G37*
%TD.AperFunction*%
%TD*%
%TA.AperFunction,Conductor*%
%TO.N,/VDD*%
G36*
X107124611Y-59518810D02*
G01*
X107896215Y-59837438D01*
X107902552Y-59843761D01*
X107902562Y-59843785D01*
X108221188Y-60615386D01*
X108221179Y-60624341D01*
X108215764Y-60630237D01*
X106953010Y-61285622D01*
X106944088Y-61286391D01*
X106939347Y-61283510D01*
X106456489Y-60800652D01*
X106453062Y-60792379D01*
X106454376Y-60786992D01*
X107109763Y-59524233D01*
X107116615Y-59518471D01*
X107124611Y-59518810D01*
G37*
%TD.AperFunction*%
%TD*%
%TA.AperFunction,Conductor*%
%TO.N,GND*%
G36*
X148544726Y-63451422D02*
G01*
X148545481Y-63452253D01*
X149217515Y-64267549D01*
X149220133Y-64276113D01*
X149216774Y-64283250D01*
X148802363Y-64699044D01*
X148798537Y-64701601D01*
X148258754Y-64924214D01*
X148249799Y-64924200D01*
X148243477Y-64917859D01*
X148242831Y-64915747D01*
X148198762Y-64700707D01*
X148043578Y-63943456D01*
X148045274Y-63934664D01*
X148046762Y-63932840D01*
X148528181Y-63451421D01*
X148536453Y-63447995D01*
X148544726Y-63451422D01*
G37*
%TD.AperFunction*%
%TD*%
%TA.AperFunction,Conductor*%
%TO.N,GND*%
G36*
X119012899Y-51601366D02*
G01*
X119094119Y-51609966D01*
X119782770Y-51682891D01*
X119790635Y-51687170D01*
X119793237Y-51694526D01*
X119793237Y-52372533D01*
X119789810Y-52380806D01*
X119781773Y-52384231D01*
X119011906Y-52399759D01*
X119003565Y-52396499D01*
X118999972Y-52388297D01*
X118999970Y-52388090D01*
X118999960Y-52384231D01*
X118999000Y-52000000D01*
X118999967Y-51612970D01*
X119003415Y-51604707D01*
X119011696Y-51601301D01*
X119012899Y-51601366D01*
G37*
%TD.AperFunction*%
%TD*%
%TA.AperFunction,Conductor*%
%TO.N,GND*%
G36*
X118995688Y-51603903D02*
G01*
X118999967Y-51611769D01*
X119000032Y-51612972D01*
X119001000Y-52000000D01*
X119001000Y-52000058D01*
X119000029Y-52388090D01*
X118996581Y-52396355D01*
X118988300Y-52399761D01*
X118988093Y-52399759D01*
X118218227Y-52384231D01*
X118210025Y-52380638D01*
X118206763Y-52372533D01*
X118206763Y-51694526D01*
X118210190Y-51686253D01*
X118217229Y-51682891D01*
X118987100Y-51601366D01*
X118995688Y-51603903D01*
G37*
%TD.AperFunction*%
%TD*%
%TA.AperFunction,Conductor*%
%TO.N,GND*%
G36*
X108739091Y-76439987D02*
G01*
X108747360Y-76443424D01*
X108750749Y-76450883D01*
X108849139Y-77879233D01*
X108846289Y-77887722D01*
X108838271Y-77891709D01*
X108837467Y-77891737D01*
X108154845Y-77891737D01*
X108146574Y-77888312D01*
X107307228Y-77049307D01*
X107303799Y-77041034D01*
X107307218Y-77032768D01*
X107896567Y-76442437D01*
X107904833Y-76439005D01*
X108739091Y-76439987D01*
G37*
%TD.AperFunction*%
%TD*%
%TA.AperFunction,Conductor*%
%TO.N,GND*%
G36*
X111906911Y-92209170D02*
G01*
X112721487Y-92740375D01*
X112726545Y-92747764D01*
X112725912Y-92754636D01*
X112502562Y-93296207D01*
X112496240Y-93302548D01*
X112496207Y-93302562D01*
X111954636Y-93525912D01*
X111945681Y-93525898D01*
X111940375Y-93521487D01*
X111409170Y-92706911D01*
X111407521Y-92698109D01*
X111410695Y-92692249D01*
X111892248Y-92210696D01*
X111900520Y-92207270D01*
X111906911Y-92209170D01*
G37*
%TD.AperFunction*%
%TD*%
%TA.AperFunction,Conductor*%
%TO.N,GND*%
G36*
X130269462Y-63449440D02*
G01*
X130274267Y-63454992D01*
X130499130Y-63995506D01*
X130499144Y-64004461D01*
X130499130Y-64004494D01*
X130274757Y-64543829D01*
X130268416Y-64550151D01*
X130259771Y-64550261D01*
X129319948Y-64190378D01*
X129313447Y-64184220D01*
X129312432Y-64179452D01*
X129312432Y-63696613D01*
X129315859Y-63688340D01*
X129321266Y-63685269D01*
X130260603Y-63448142D01*
X130269462Y-63449440D01*
G37*
%TD.AperFunction*%
%TD*%
%TA.AperFunction,Conductor*%
%TO.N,Net-(Q1-C)*%
G36*
X126631851Y-61084693D02*
G01*
X126632472Y-61085366D01*
X127164209Y-61709220D01*
X127167005Y-61716809D01*
X127167005Y-62396784D01*
X127163578Y-62405057D01*
X127155305Y-62408484D01*
X127151950Y-62407993D01*
X125982783Y-62058037D01*
X125975840Y-62052381D01*
X125974929Y-62043473D01*
X125975316Y-62042381D01*
X126198107Y-61502163D01*
X126200657Y-61498346D01*
X126615306Y-61084672D01*
X126623582Y-61081256D01*
X126631851Y-61084693D01*
G37*
%TD.AperFunction*%
%TD*%
%TA.AperFunction,Conductor*%
%TO.N,Net-(Q1-C)*%
G36*
X137287317Y-62987379D02*
G01*
X137525245Y-63021145D01*
X138946936Y-63222912D01*
X138954645Y-63227466D01*
X138956875Y-63236139D01*
X138956728Y-63236963D01*
X138797194Y-63976215D01*
X138792099Y-63983579D01*
X138788919Y-63985012D01*
X137629318Y-64310541D01*
X137620427Y-64309477D01*
X137617909Y-64307576D01*
X136794884Y-63489805D01*
X136791431Y-63481542D01*
X136794829Y-63473261D01*
X137277401Y-62990689D01*
X137285673Y-62987263D01*
X137287317Y-62987379D01*
G37*
%TD.AperFunction*%
%TD*%
%TA.AperFunction,Conductor*%
%TO.N,Net-(Q3-C)*%
G36*
X132390711Y-84648044D02*
G01*
X132398100Y-84653102D01*
X132400000Y-84659493D01*
X132400000Y-85340506D01*
X132396573Y-85348779D01*
X132390711Y-85351955D01*
X131439098Y-85552330D01*
X131430296Y-85550681D01*
X131425885Y-85545375D01*
X131340656Y-85340506D01*
X131200868Y-85004492D01*
X131200855Y-84995541D01*
X131425886Y-84454622D01*
X131432226Y-84448302D01*
X131439095Y-84447669D01*
X132390711Y-84648044D01*
G37*
%TD.AperFunction*%
%TD*%
%TA.AperFunction,Conductor*%
%TO.N,Net-(Q3-C)*%
G36*
X136069703Y-84449318D02*
G01*
X136074114Y-84454624D01*
X136299130Y-84995506D01*
X136299144Y-85004461D01*
X136299130Y-85004494D01*
X136074114Y-85545375D01*
X136067773Y-85551697D01*
X136060901Y-85552330D01*
X135109289Y-85351955D01*
X135101900Y-85346897D01*
X135100000Y-85340506D01*
X135100000Y-84659493D01*
X135103427Y-84651220D01*
X135109289Y-84648044D01*
X136060903Y-84447669D01*
X136069703Y-84449318D01*
G37*
%TD.AperFunction*%
%TD*%
%TA.AperFunction,Conductor*%
%TO.N,/A*%
G36*
X139724314Y-65891472D02*
G01*
X140797409Y-66368312D01*
X140803578Y-66374803D01*
X140804358Y-66379004D01*
X140804358Y-66614118D01*
X140800931Y-66622391D01*
X140797825Y-66624615D01*
X139724484Y-67152958D01*
X139715548Y-67153537D01*
X139712702Y-67152112D01*
X138808080Y-66532051D01*
X138803194Y-66524547D01*
X138805044Y-66515785D01*
X138808080Y-66512749D01*
X139003204Y-66379004D01*
X139712954Y-65892514D01*
X139721715Y-65890665D01*
X139724314Y-65891472D01*
G37*
%TD.AperFunction*%
%TD*%
%TA.AperFunction,Conductor*%
%TO.N,/A*%
G36*
X138147715Y-86378187D02*
G01*
X138151633Y-86381130D01*
X138787388Y-87112493D01*
X138790229Y-87120985D01*
X138786234Y-87128999D01*
X138785173Y-87129820D01*
X137877753Y-87751799D01*
X137868991Y-87753649D01*
X137865260Y-87752264D01*
X136791464Y-87128382D01*
X136786032Y-87121263D01*
X136785642Y-87118266D01*
X136785642Y-86883165D01*
X136789069Y-86874892D01*
X136793304Y-86872184D01*
X138138769Y-86377824D01*
X138147715Y-86378187D01*
G37*
%TD.AperFunction*%
%TD*%
%TA.AperFunction,Conductor*%
%TO.N,/A*%
G36*
X143125188Y-86703427D02*
G01*
X143127859Y-86707563D01*
X143365551Y-87336344D01*
X143365271Y-87345294D01*
X143359109Y-87351280D01*
X143004502Y-87499123D01*
X142995548Y-87499144D01*
X142995498Y-87499123D01*
X142640890Y-87351280D01*
X142634572Y-87344933D01*
X142634448Y-87336345D01*
X142872141Y-86707562D01*
X142878272Y-86701036D01*
X142883085Y-86700000D01*
X143116915Y-86700000D01*
X143125188Y-86703427D01*
G37*
%TD.AperFunction*%
%TD*%
%TA.AperFunction,Conductor*%
%TO.N,/sA*%
G36*
X129909109Y-79148719D02*
G01*
X129915427Y-79155066D01*
X129915551Y-79163655D01*
X129677859Y-79792437D01*
X129671728Y-79798964D01*
X129666915Y-79800000D01*
X129433085Y-79800000D01*
X129424812Y-79796573D01*
X129422141Y-79792437D01*
X129184448Y-79163655D01*
X129184728Y-79154705D01*
X129190889Y-79148719D01*
X129545500Y-79000875D01*
X129554449Y-79000855D01*
X129909109Y-79148719D01*
G37*
%TD.AperFunction*%
%TD*%
%TA.AperFunction,Conductor*%
%TO.N,/sB*%
G36*
X129184109Y-80148719D02*
G01*
X129190427Y-80155066D01*
X129190551Y-80163655D01*
X128952859Y-80792437D01*
X128946728Y-80798964D01*
X128941915Y-80800000D01*
X128708085Y-80800000D01*
X128699812Y-80796573D01*
X128697141Y-80792437D01*
X128459448Y-80163655D01*
X128459728Y-80154705D01*
X128465889Y-80148719D01*
X128820500Y-80000875D01*
X128829449Y-80000855D01*
X129184109Y-80148719D01*
G37*
%TD.AperFunction*%
%TD*%
%TA.AperFunction,Conductor*%
%TO.N,/B*%
G36*
X139729899Y-68433116D02*
G01*
X140820881Y-69148249D01*
X140825922Y-69155649D01*
X140824252Y-69164447D01*
X140822740Y-69166306D01*
X140657851Y-69331195D01*
X140653875Y-69333804D01*
X139456362Y-69806715D01*
X139447409Y-69806567D01*
X139443230Y-69803503D01*
X138807894Y-69071601D01*
X138805058Y-69063107D01*
X138809059Y-69055096D01*
X138810105Y-69054287D01*
X139716879Y-68433248D01*
X139725638Y-68431401D01*
X139729899Y-68433116D01*
G37*
%TD.AperFunction*%
%TD*%
%TA.AperFunction,Conductor*%
%TO.N,/B*%
G36*
X137857765Y-89059545D02*
G01*
X138789576Y-89655098D01*
X138794701Y-89662440D01*
X138793133Y-89671257D01*
X138792105Y-89672632D01*
X138155909Y-90404502D01*
X138147895Y-90408497D01*
X138144543Y-90408248D01*
X136878067Y-90127034D01*
X136870733Y-90121895D01*
X136868903Y-90115612D01*
X136868903Y-89880471D01*
X136872330Y-89872198D01*
X136873102Y-89871492D01*
X137843967Y-89060424D01*
X137852511Y-89057751D01*
X137857765Y-89059545D01*
G37*
%TD.AperFunction*%
%TD*%
%TA.AperFunction,Conductor*%
%TO.N,/B*%
G36*
X139729403Y-89031657D02*
G01*
X140802620Y-89534245D01*
X140808659Y-89540856D01*
X140809358Y-89544840D01*
X140809358Y-89779959D01*
X140805931Y-89788232D01*
X140802620Y-89790555D01*
X139729403Y-90293142D01*
X139720457Y-90293547D01*
X139717826Y-90292197D01*
X138813080Y-89672051D01*
X138808194Y-89664547D01*
X138810044Y-89655785D01*
X138813080Y-89652749D01*
X138985970Y-89534244D01*
X139717827Y-89032601D01*
X139726588Y-89030752D01*
X139729403Y-89031657D01*
G37*
%TD.AperFunction*%
%TD*%
%TA.AperFunction,Conductor*%
%TO.N,/sC*%
G36*
X127309109Y-79148719D02*
G01*
X127315427Y-79155066D01*
X127315551Y-79163655D01*
X127077859Y-79792437D01*
X127071728Y-79798964D01*
X127066915Y-79800000D01*
X126833085Y-79800000D01*
X126824812Y-79796573D01*
X126822141Y-79792437D01*
X126584448Y-79163655D01*
X126584728Y-79154705D01*
X126590889Y-79148719D01*
X126945500Y-79000875D01*
X126954449Y-79000855D01*
X127309109Y-79148719D01*
G37*
%TD.AperFunction*%
%TD*%
%TA.AperFunction,Conductor*%
%TO.N,/C*%
G36*
X112925188Y-86703427D02*
G01*
X112927859Y-86707563D01*
X113165551Y-87336344D01*
X113165271Y-87345294D01*
X113159109Y-87351280D01*
X112804502Y-87499123D01*
X112795548Y-87499144D01*
X112795498Y-87499123D01*
X112440890Y-87351280D01*
X112434572Y-87344933D01*
X112434448Y-87336345D01*
X112672141Y-86707562D01*
X112678272Y-86701036D01*
X112683085Y-86700000D01*
X112916915Y-86700000D01*
X112925188Y-86703427D01*
G37*
%TD.AperFunction*%
%TD*%
%TA.AperFunction,Conductor*%
%TO.N,/C*%
G36*
X118173507Y-86543266D02*
G01*
X119105600Y-87371510D01*
X119109508Y-87379566D01*
X119109528Y-87380255D01*
X119109528Y-87615345D01*
X119106101Y-87623618D01*
X119100049Y-87626832D01*
X117850283Y-87868477D01*
X117841510Y-87866683D01*
X117839234Y-87864668D01*
X117203145Y-87132921D01*
X117200305Y-87124430D01*
X117204300Y-87116416D01*
X117205946Y-87115219D01*
X118159708Y-86541983D01*
X118168564Y-86540659D01*
X118173507Y-86543266D01*
G37*
%TD.AperFunction*%
%TD*%
%TA.AperFunction,Conductor*%
%TO.N,/C*%
G36*
X116277046Y-65892515D02*
G01*
X117181919Y-66512749D01*
X117186805Y-66520253D01*
X117184955Y-66529015D01*
X117181919Y-66532051D01*
X116277297Y-67152112D01*
X116268535Y-67153962D01*
X116265517Y-67152958D01*
X115935786Y-66990652D01*
X115192175Y-66624615D01*
X115186266Y-66617887D01*
X115185642Y-66614118D01*
X115185642Y-66379004D01*
X115189069Y-66370731D01*
X115192591Y-66368312D01*
X116265682Y-65891473D01*
X116274632Y-65891246D01*
X116277046Y-65892515D01*
G37*
%TD.AperFunction*%
%TD*%
%TA.AperFunction,Conductor*%
%TO.N,/sD*%
G36*
X126584109Y-77648719D02*
G01*
X126590427Y-77655066D01*
X126590551Y-77663655D01*
X126352859Y-78292437D01*
X126346728Y-78298964D01*
X126341915Y-78300000D01*
X126108085Y-78300000D01*
X126099812Y-78296573D01*
X126097141Y-78292437D01*
X125859448Y-77663655D01*
X125859728Y-77654705D01*
X125865889Y-77648719D01*
X126220500Y-77500875D01*
X126229449Y-77500855D01*
X126584109Y-77648719D01*
G37*
%TD.AperFunction*%
%TD*%
%TA.AperFunction,Conductor*%
%TO.N,/D*%
G36*
X111825188Y-81403427D02*
G01*
X111827859Y-81407563D01*
X112065551Y-82036344D01*
X112065271Y-82045294D01*
X112059109Y-82051280D01*
X111704502Y-82199123D01*
X111695548Y-82199144D01*
X111695498Y-82199123D01*
X111340890Y-82051280D01*
X111334572Y-82044933D01*
X111334448Y-82036345D01*
X111572141Y-81407562D01*
X111578272Y-81401036D01*
X111583085Y-81400000D01*
X111816915Y-81400000D01*
X111825188Y-81403427D01*
G37*
%TD.AperFunction*%
%TD*%
%TA.AperFunction,Conductor*%
%TO.N,/D*%
G36*
X118335441Y-81622018D02*
G01*
X118338900Y-81624433D01*
X119078008Y-82371581D01*
X119081390Y-82379809D01*
X119081390Y-82614759D01*
X119077963Y-82623032D01*
X119071240Y-82626356D01*
X117854904Y-82788923D01*
X117846250Y-82786622D01*
X117844527Y-82785005D01*
X117210072Y-82055137D01*
X117207231Y-82046645D01*
X117211226Y-82038631D01*
X117214807Y-82036501D01*
X118326493Y-81621699D01*
X118335441Y-81622018D01*
G37*
%TD.AperFunction*%
%TD*%
%TA.AperFunction,Conductor*%
%TO.N,/D*%
G36*
X116552568Y-60698241D02*
G01*
X116556803Y-60701325D01*
X117192388Y-61432493D01*
X117195229Y-61440985D01*
X117191234Y-61448999D01*
X117190173Y-61449820D01*
X116282536Y-62071948D01*
X116273774Y-62073798D01*
X116270375Y-62072599D01*
X115196796Y-61494712D01*
X115191136Y-61487774D01*
X115190642Y-61484410D01*
X115190642Y-61249309D01*
X115194069Y-61241036D01*
X115197978Y-61238454D01*
X116543615Y-60698144D01*
X116552568Y-60698241D01*
G37*
%TD.AperFunction*%
%TD*%
%TA.AperFunction,Conductor*%
%TO.N,/E*%
G36*
X118468402Y-78743352D02*
G01*
X119219804Y-79371492D01*
X119223954Y-79379428D01*
X119224000Y-79380469D01*
X119224000Y-79619530D01*
X119220573Y-79627803D01*
X119219804Y-79628507D01*
X118468402Y-80256647D01*
X118459857Y-80259324D01*
X118454854Y-80257688D01*
X117682484Y-79791698D01*
X117215603Y-79510017D01*
X117210290Y-79502810D01*
X117211630Y-79493956D01*
X117215603Y-79489982D01*
X118454854Y-78742310D01*
X118463708Y-78740971D01*
X118468402Y-78743352D01*
G37*
%TD.AperFunction*%
%TD*%
%TA.AperFunction,Conductor*%
%TO.N,/sE*%
G36*
X125859109Y-76648719D02*
G01*
X125865427Y-76655066D01*
X125865551Y-76663655D01*
X125627859Y-77292437D01*
X125621728Y-77298964D01*
X125616915Y-77300000D01*
X125383085Y-77300000D01*
X125374812Y-77296573D01*
X125372141Y-77292437D01*
X125134448Y-76663655D01*
X125134728Y-76654705D01*
X125140889Y-76648719D01*
X125495500Y-76500875D01*
X125504449Y-76500855D01*
X125859109Y-76648719D01*
G37*
%TD.AperFunction*%
%TD*%
%TA.AperFunction,Conductor*%
%TO.N,/sF*%
G36*
X130634109Y-77648719D02*
G01*
X130640427Y-77655066D01*
X130640551Y-77663655D01*
X130402859Y-78292437D01*
X130396728Y-78298964D01*
X130391915Y-78300000D01*
X130158085Y-78300000D01*
X130149812Y-78296573D01*
X130147141Y-78292437D01*
X129909448Y-77663655D01*
X129909728Y-77654705D01*
X129915889Y-77648719D01*
X130270500Y-77500875D01*
X130279449Y-77500855D01*
X130634109Y-77648719D01*
G37*
%TD.AperFunction*%
%TD*%
%TA.AperFunction,Conductor*%
%TO.N,/F*%
G36*
X144125188Y-81703427D02*
G01*
X144127859Y-81707563D01*
X144365551Y-82336344D01*
X144365271Y-82345294D01*
X144359109Y-82351280D01*
X144004502Y-82499123D01*
X143995548Y-82499144D01*
X143995498Y-82499123D01*
X143640890Y-82351280D01*
X143634572Y-82344933D01*
X143634448Y-82336345D01*
X143872141Y-81707562D01*
X143878272Y-81701036D01*
X143883085Y-81700000D01*
X144116915Y-81700000D01*
X144125188Y-81703427D01*
G37*
%TD.AperFunction*%
%TD*%
%TA.AperFunction,Conductor*%
%TO.N,/F*%
G36*
X139456383Y-60698143D02*
G01*
X140802019Y-61238453D01*
X140808418Y-61244714D01*
X140809358Y-61249309D01*
X140809358Y-61484410D01*
X140805931Y-61492683D01*
X140803204Y-61494712D01*
X139729624Y-62072599D01*
X139720714Y-62073503D01*
X139717463Y-62071948D01*
X138809826Y-61449820D01*
X138804940Y-61442316D01*
X138806790Y-61433554D01*
X138807603Y-61432502D01*
X139443198Y-60701323D01*
X139451210Y-60697330D01*
X139456383Y-60698143D01*
G37*
%TD.AperFunction*%
%TD*%
%TA.AperFunction,Conductor*%
%TO.N,/F*%
G36*
X137673613Y-81621739D02*
G01*
X138785188Y-82036500D01*
X138791740Y-82042602D01*
X138792059Y-82051551D01*
X138789927Y-82055137D01*
X138155485Y-82784990D01*
X138147471Y-82788985D01*
X138145080Y-82788907D01*
X136948800Y-82626375D01*
X136941063Y-82621866D01*
X136938675Y-82614782D01*
X136938675Y-82379716D01*
X136941946Y-82371602D01*
X137661094Y-81624586D01*
X137669301Y-81621003D01*
X137673613Y-81621739D01*
G37*
%TD.AperFunction*%
%TD*%
%TA.AperFunction,Conductor*%
%TO.N,/G*%
G36*
X145625188Y-78703427D02*
G01*
X145627859Y-78707563D01*
X145865551Y-79336344D01*
X145865271Y-79345294D01*
X145859109Y-79351280D01*
X145504502Y-79499123D01*
X145495548Y-79499144D01*
X145495498Y-79499123D01*
X145140890Y-79351280D01*
X145134572Y-79344933D01*
X145134448Y-79336345D01*
X145372141Y-78707562D01*
X145378272Y-78701036D01*
X145383085Y-78700000D01*
X145616915Y-78700000D01*
X145625188Y-78703427D01*
G37*
%TD.AperFunction*%
%TD*%
%TA.AperFunction,Conductor*%
%TO.N,/G*%
G36*
X139455881Y-58154796D02*
G01*
X140768968Y-58546507D01*
X140775915Y-58552156D01*
X140777322Y-58557719D01*
X140777322Y-58792892D01*
X140773895Y-58801165D01*
X140772312Y-58802491D01*
X139729979Y-59528955D01*
X139721232Y-59530874D01*
X139716674Y-59529007D01*
X138809826Y-58907420D01*
X138804940Y-58899916D01*
X138806790Y-58891154D01*
X138807603Y-58890102D01*
X139443712Y-58158332D01*
X139451725Y-58154338D01*
X139455881Y-58154796D01*
G37*
%TD.AperFunction*%
%TD*%
%TA.AperFunction,Conductor*%
%TO.N,/G*%
G36*
X137882173Y-78870202D02*
G01*
X138786919Y-79490349D01*
X138791805Y-79497853D01*
X138789955Y-79506615D01*
X138786919Y-79509651D01*
X137882173Y-80129797D01*
X137873411Y-80131647D01*
X137870596Y-80130742D01*
X136797380Y-79628155D01*
X136791341Y-79621543D01*
X136790642Y-79617559D01*
X136790642Y-79382440D01*
X136794069Y-79374167D01*
X136797377Y-79371845D01*
X137870597Y-78869256D01*
X137879542Y-78868852D01*
X137882173Y-78870202D01*
G37*
%TD.AperFunction*%
%TD*%
%TA.AperFunction,Conductor*%
%TO.N,/sG*%
G36*
X131359109Y-76648719D02*
G01*
X131365427Y-76655066D01*
X131365551Y-76663655D01*
X131127859Y-77292437D01*
X131121728Y-77298964D01*
X131116915Y-77300000D01*
X130883085Y-77300000D01*
X130874812Y-77296573D01*
X130872141Y-77292437D01*
X130634448Y-76663655D01*
X130634728Y-76654705D01*
X130640889Y-76648719D01*
X130995500Y-76500875D01*
X131004449Y-76500855D01*
X131359109Y-76648719D01*
G37*
%TD.AperFunction*%
%TD*%
%TA.AperFunction,Conductor*%
%TO.N,/sDP*%
G36*
X128034109Y-80148719D02*
G01*
X128040427Y-80155066D01*
X128040551Y-80163655D01*
X127802859Y-80792437D01*
X127796728Y-80798964D01*
X127791915Y-80800000D01*
X127558085Y-80800000D01*
X127549812Y-80796573D01*
X127547141Y-80792437D01*
X127309448Y-80163655D01*
X127309728Y-80154705D01*
X127315889Y-80148719D01*
X127670500Y-80000875D01*
X127679449Y-80000855D01*
X128034109Y-80148719D01*
G37*
%TD.AperFunction*%
%TD*%
%TA.AperFunction,Conductor*%
%TO.N,/DP*%
G36*
X118156032Y-89060424D02*
G01*
X118869100Y-89656126D01*
X119126898Y-89871492D01*
X119131050Y-89879426D01*
X119131097Y-89880471D01*
X119131097Y-90115612D01*
X119127670Y-90123885D01*
X119121933Y-90127034D01*
X117855456Y-90408248D01*
X117846637Y-90406696D01*
X117844090Y-90404502D01*
X117387655Y-89879426D01*
X117207893Y-89672631D01*
X117205053Y-89664140D01*
X117209048Y-89656126D01*
X117210412Y-89655105D01*
X118142233Y-89059545D01*
X118151048Y-89057978D01*
X118156032Y-89060424D01*
G37*
%TD.AperFunction*%
%TD*%
%TA.AperFunction,Conductor*%
%TO.N,/DP*%
G36*
X115025188Y-89303427D02*
G01*
X115027859Y-89307563D01*
X115265551Y-89936344D01*
X115265271Y-89945294D01*
X115259109Y-89951280D01*
X114904502Y-90099123D01*
X114895548Y-90099144D01*
X114895498Y-90099123D01*
X114540890Y-89951280D01*
X114534572Y-89944933D01*
X114534448Y-89936345D01*
X114772141Y-89307562D01*
X114778272Y-89301036D01*
X114783085Y-89300000D01*
X115016915Y-89300000D01*
X115025188Y-89303427D01*
G37*
%TD.AperFunction*%
%TD*%
%TA.AperFunction,Conductor*%
%TO.N,/DP*%
G36*
X117200633Y-69065142D02*
G01*
X117204015Y-69069716D01*
X117506354Y-69802815D01*
X117506340Y-69811770D01*
X117499999Y-69818092D01*
X117499575Y-69818257D01*
X115974221Y-70378993D01*
X115965273Y-70378632D01*
X115961911Y-70376285D01*
X115794642Y-70209016D01*
X115791215Y-70200743D01*
X115791360Y-70198909D01*
X115852819Y-69811770D01*
X115951223Y-69191906D01*
X115955904Y-69184273D01*
X115961645Y-69182096D01*
X117192068Y-69062532D01*
X117200633Y-69065142D01*
G37*
%TD.AperFunction*%
%TD*%
%TA.AperFunction,Conductor*%
%TO.N,/PWM2*%
G36*
X130640909Y-66151232D02*
G01*
X130783763Y-66210018D01*
X130996195Y-66297436D01*
X131002542Y-66303754D01*
X131002563Y-66303804D01*
X131148767Y-66659090D01*
X131148746Y-66668044D01*
X131142760Y-66674206D01*
X130530071Y-66950747D01*
X130521121Y-66951027D01*
X130516985Y-66948356D01*
X130351643Y-66783014D01*
X130348216Y-66774741D01*
X130349252Y-66769928D01*
X130395238Y-66668044D01*
X130625794Y-66157238D01*
X130632320Y-66151108D01*
X130640909Y-66151232D01*
G37*
%TD.AperFunction*%
%TD*%
%TA.AperFunction,Conductor*%
%TO.N,/PWM1*%
G36*
X135268044Y-65451253D02*
G01*
X135274206Y-65457239D01*
X135550747Y-66069928D01*
X135551027Y-66078878D01*
X135548356Y-66083014D01*
X135383014Y-66248356D01*
X135374741Y-66251783D01*
X135369928Y-66250747D01*
X134757239Y-65974206D01*
X134751108Y-65967679D01*
X134751232Y-65959090D01*
X134897437Y-65603802D01*
X134903753Y-65597457D01*
X135259090Y-65451232D01*
X135268044Y-65451253D01*
G37*
%TD.AperFunction*%
%TD*%
%TA.AperFunction,Conductor*%
%TO.N,/PWM1*%
G36*
X135283014Y-75451643D02*
G01*
X135448356Y-75616985D01*
X135451783Y-75625258D01*
X135450747Y-75630071D01*
X135174206Y-76242760D01*
X135167679Y-76248891D01*
X135159090Y-76248767D01*
X134803804Y-76102563D01*
X134797457Y-76096245D01*
X134797436Y-76096195D01*
X134651232Y-75740909D01*
X134651253Y-75731955D01*
X134657237Y-75725794D01*
X135269928Y-75449251D01*
X135278878Y-75448972D01*
X135283014Y-75451643D01*
G37*
%TD.AperFunction*%
%TD*%
%TA.AperFunction,Conductor*%
%TO.N,Net-(U1-RB3)*%
G36*
X125226352Y-67423318D02*
G01*
X125228333Y-67425957D01*
X125563277Y-68035508D01*
X125564258Y-68044408D01*
X125558657Y-68051396D01*
X125557525Y-68051941D01*
X125204502Y-68199123D01*
X125195548Y-68199144D01*
X125195498Y-68199123D01*
X124839565Y-68050728D01*
X124833247Y-68044381D01*
X124832666Y-68037304D01*
X124972909Y-67428963D01*
X124978107Y-67421671D01*
X124984310Y-67419891D01*
X125218079Y-67419891D01*
X125226352Y-67423318D01*
G37*
%TD.AperFunction*%
%TD*%
%TA.AperFunction,Conductor*%
%TO.N,Net-(D2-K)*%
G36*
X104751175Y-97732196D02*
G01*
X104754091Y-97737050D01*
X105298458Y-99518616D01*
X105297599Y-99527529D01*
X105291757Y-99532840D01*
X104406049Y-99900697D01*
X104397094Y-99900705D01*
X104397073Y-99900697D01*
X103511364Y-99532840D01*
X103505038Y-99526502D01*
X103504663Y-99518616D01*
X104049031Y-97737050D01*
X104054726Y-97730139D01*
X104060220Y-97728769D01*
X104742902Y-97728769D01*
X104751175Y-97732196D01*
G37*
%TD.AperFunction*%
%TD*%
%TA.AperFunction,Conductor*%
%TO.N,Net-(BZ1-+)*%
G36*
X130029491Y-52610906D02*
G01*
X130035815Y-52617246D01*
X130035804Y-52626201D01*
X130035590Y-52626685D01*
X129464959Y-53841275D01*
X129458339Y-53847306D01*
X129454369Y-53848000D01*
X129219231Y-53848000D01*
X129210958Y-53844573D01*
X129208641Y-53841275D01*
X128933959Y-53256615D01*
X128638008Y-52626683D01*
X128637593Y-52617740D01*
X128643624Y-52611120D01*
X128644099Y-52610910D01*
X129332310Y-52324865D01*
X129341263Y-52324855D01*
X130029491Y-52610906D01*
G37*
%TD.AperFunction*%
%TD*%
%TA.AperFunction,Conductor*%
%TO.N,Net-(BZ1-+)*%
G36*
X129461988Y-57228427D02*
G01*
X129464659Y-57232563D01*
X129702351Y-57861344D01*
X129702071Y-57870294D01*
X129695909Y-57876280D01*
X129341302Y-58024123D01*
X129332348Y-58024144D01*
X129332298Y-58024123D01*
X128977690Y-57876280D01*
X128971372Y-57869933D01*
X128971248Y-57861345D01*
X129208941Y-57232562D01*
X129215072Y-57226036D01*
X129219885Y-57225000D01*
X129453715Y-57225000D01*
X129461988Y-57228427D01*
G37*
%TD.AperFunction*%
%TD*%
%TA.AperFunction,Conductor*%
%TO.N,Net-(BZ1-+)*%
G36*
X121230071Y-66649252D02*
G01*
X121842760Y-66925793D01*
X121848891Y-66932320D01*
X121848767Y-66940909D01*
X121702563Y-67296195D01*
X121696245Y-67302542D01*
X121696195Y-67302563D01*
X121340909Y-67448767D01*
X121331955Y-67448746D01*
X121325793Y-67442760D01*
X121261676Y-67300707D01*
X121099279Y-66940909D01*
X121049252Y-66830071D01*
X121048972Y-66821121D01*
X121051641Y-66816987D01*
X121216986Y-66651642D01*
X121225258Y-66648216D01*
X121230071Y-66649252D01*
G37*
%TD.AperFunction*%
%TD*%
%TA.AperFunction,Conductor*%
%TO.N,Net-(BZ1-+)*%
G36*
X120559109Y-59048719D02*
G01*
X120565427Y-59055066D01*
X120565551Y-59063655D01*
X120327859Y-59692437D01*
X120321728Y-59698964D01*
X120316915Y-59700000D01*
X120083085Y-59700000D01*
X120074812Y-59696573D01*
X120072141Y-59692437D01*
X119834448Y-59063655D01*
X119834728Y-59054705D01*
X119840889Y-59048719D01*
X120195500Y-58900875D01*
X120204449Y-58900855D01*
X120559109Y-59048719D01*
G37*
%TD.AperFunction*%
%TD*%
%TA.AperFunction,Conductor*%
%TO.N,Net-(BZ1--)*%
G36*
X121859109Y-59848719D02*
G01*
X121865427Y-59855066D01*
X121865551Y-59863655D01*
X121627859Y-60492437D01*
X121621728Y-60498964D01*
X121616915Y-60500000D01*
X121383085Y-60500000D01*
X121374812Y-60496573D01*
X121372141Y-60492437D01*
X121134448Y-59863655D01*
X121134728Y-59854705D01*
X121140889Y-59848719D01*
X121495500Y-59700875D01*
X121504449Y-59700855D01*
X121859109Y-59848719D01*
G37*
%TD.AperFunction*%
%TD*%
%TA.AperFunction,Conductor*%
%TO.N,Net-(BZ1--)*%
G36*
X134831466Y-52331277D02*
G01*
X135193304Y-52693590D01*
X135577642Y-53078433D01*
X135581063Y-53086709D01*
X135578340Y-53094205D01*
X134951708Y-53843804D01*
X134943772Y-53847954D01*
X134942731Y-53848000D01*
X134703669Y-53848000D01*
X134695396Y-53844573D01*
X134694692Y-53843804D01*
X134068059Y-53094205D01*
X134065382Y-53085660D01*
X134068757Y-53078433D01*
X134814922Y-52331288D01*
X134823192Y-52327857D01*
X134831466Y-52331277D01*
G37*
%TD.AperFunction*%
%TD*%
%TA.AperFunction,Conductor*%
%TO.N,Net-(BZ1--)*%
G36*
X126613883Y-59227686D02*
G01*
X127365659Y-59373166D01*
X127373130Y-59378102D01*
X127375136Y-59384653D01*
X127375136Y-59618341D01*
X127371709Y-59626614D01*
X127369412Y-59628400D01*
X126764661Y-59987667D01*
X126755798Y-59988946D01*
X126748626Y-59983584D01*
X126747886Y-59982110D01*
X126707649Y-59885600D01*
X126599905Y-59627171D01*
X126599005Y-59622648D01*
X126599964Y-59239143D01*
X126603412Y-59230880D01*
X126611693Y-59227474D01*
X126613883Y-59227686D01*
G37*
%TD.AperFunction*%
%TD*%
%TA.AperFunction,Conductor*%
%TO.N,Net-(BZ1--)*%
G36*
X121628287Y-65027084D02*
G01*
X122073276Y-65408947D01*
X122077323Y-65416935D01*
X122074536Y-65425445D01*
X122073945Y-65426085D01*
X121803441Y-65697546D01*
X121795174Y-65700987D01*
X121795124Y-65700987D01*
X121411247Y-65700028D01*
X121402982Y-65696580D01*
X121399584Y-65688761D01*
X121389527Y-65416935D01*
X121375449Y-65036396D01*
X121378568Y-65028001D01*
X121386708Y-65024271D01*
X121387141Y-65024263D01*
X121620668Y-65024263D01*
X121628287Y-65027084D01*
G37*
%TD.AperFunction*%
%TD*%
%TA.AperFunction,Conductor*%
%TO.N,Net-(Q6-C)*%
G36*
X154397627Y-49904284D02*
G01*
X154401058Y-49912556D01*
X154401002Y-49913709D01*
X154289088Y-51049843D01*
X154284866Y-51057740D01*
X154277005Y-51060388D01*
X152970184Y-51011352D01*
X152962350Y-51007933D01*
X152794093Y-50839676D01*
X152790666Y-50831403D01*
X152791373Y-50827397D01*
X153125968Y-49909249D01*
X153132020Y-49902651D01*
X153136951Y-49901557D01*
X154389352Y-49900862D01*
X154397627Y-49904284D01*
G37*
%TD.AperFunction*%
%TD*%
%TA.AperFunction,Conductor*%
%TO.N,Net-(Q7-E)*%
G36*
X104153054Y-89109293D02*
G01*
X104571649Y-89409139D01*
X104576379Y-89416742D01*
X104574348Y-89425463D01*
X104573124Y-89426909D01*
X104301659Y-89699334D01*
X104297823Y-89701895D01*
X103939459Y-89849364D01*
X103930505Y-89849343D01*
X103925171Y-89844879D01*
X103461616Y-89125141D01*
X103460017Y-89116330D01*
X103465117Y-89108970D01*
X103471452Y-89107106D01*
X104146242Y-89107106D01*
X104153054Y-89109293D01*
G37*
%TD.AperFunction*%
%TD*%
%TA.AperFunction,Conductor*%
%TO.N,Net-(Q7-E)*%
G36*
X108525970Y-88894599D02*
G01*
X109005400Y-89374029D01*
X109008827Y-89382302D01*
X109005900Y-89390043D01*
X108491062Y-89973528D01*
X108483019Y-89977464D01*
X108474548Y-89974560D01*
X108474037Y-89974081D01*
X108199293Y-89700707D01*
X108199251Y-89700665D01*
X107925918Y-89425962D01*
X107922512Y-89417681D01*
X107925960Y-89409416D01*
X107926438Y-89408967D01*
X108509956Y-88894098D01*
X108518427Y-88891195D01*
X108525970Y-88894599D01*
G37*
%TD.AperFunction*%
%TD*%
%TA.AperFunction,Conductor*%
%TO.N,/ADC*%
G36*
X151785464Y-47765823D02*
G01*
X152601725Y-48102948D01*
X152608064Y-48109274D01*
X152608073Y-48109296D01*
X152945192Y-48925541D01*
X152945183Y-48934495D01*
X152938844Y-48940821D01*
X152938208Y-48941062D01*
X151428030Y-49464292D01*
X151419091Y-49463763D01*
X151415927Y-49461510D01*
X151249511Y-49295094D01*
X151246084Y-49286821D01*
X151246728Y-49282994D01*
X151769959Y-47772812D01*
X151775905Y-47766117D01*
X151784844Y-47765588D01*
X151785464Y-47765823D01*
G37*
%TD.AperFunction*%
%TD*%
%TA.AperFunction,Conductor*%
%TO.N,/ADC*%
G36*
X136026352Y-59423318D02*
G01*
X136028333Y-59425957D01*
X136363277Y-60035508D01*
X136364258Y-60044408D01*
X136358657Y-60051396D01*
X136357525Y-60051941D01*
X136004502Y-60199123D01*
X135995548Y-60199144D01*
X135995498Y-60199123D01*
X135639565Y-60050728D01*
X135633247Y-60044381D01*
X135632666Y-60037304D01*
X135772909Y-59428963D01*
X135778107Y-59421671D01*
X135784310Y-59419891D01*
X136018079Y-59419891D01*
X136026352Y-59423318D01*
G37*
%TD.AperFunction*%
%TD*%
%TA.AperFunction,Conductor*%
%TO.N,/IR_EN*%
G36*
X114103405Y-70302418D02*
G01*
X114103441Y-70302453D01*
X114373945Y-70573914D01*
X114377357Y-70582194D01*
X114373916Y-70590461D01*
X114373276Y-70591052D01*
X113928287Y-70972916D01*
X113920668Y-70975737D01*
X113687141Y-70975737D01*
X113678868Y-70972310D01*
X113675441Y-70964037D01*
X113675449Y-70963604D01*
X113699584Y-70311238D01*
X113703314Y-70303098D01*
X113711244Y-70299971D01*
X114095124Y-70299012D01*
X114103405Y-70302418D01*
G37*
%TD.AperFunction*%
%TD*%
%TA.AperFunction,Conductor*%
%TO.N,/IR_EN*%
G36*
X110240909Y-81051232D02*
G01*
X110383763Y-81110018D01*
X110596195Y-81197436D01*
X110602542Y-81203754D01*
X110602563Y-81203804D01*
X110748767Y-81559090D01*
X110748746Y-81568044D01*
X110742760Y-81574206D01*
X110130071Y-81850747D01*
X110121121Y-81851027D01*
X110116985Y-81848356D01*
X109951643Y-81683014D01*
X109948216Y-81674741D01*
X109949252Y-81669928D01*
X109995238Y-81568044D01*
X110225794Y-81057238D01*
X110232320Y-81051108D01*
X110240909Y-81051232D01*
G37*
%TD.AperFunction*%
%TD*%
%TA.AperFunction,Conductor*%
%TO.N,/IR_EN*%
G36*
X113925188Y-80403427D02*
G01*
X113927859Y-80407563D01*
X114165551Y-81036344D01*
X114165271Y-81045294D01*
X114159109Y-81051280D01*
X113804502Y-81199123D01*
X113795548Y-81199144D01*
X113795498Y-81199123D01*
X113440890Y-81051280D01*
X113434572Y-81044933D01*
X113434448Y-81036345D01*
X113672141Y-80407562D01*
X113678272Y-80401036D01*
X113683085Y-80400000D01*
X113916915Y-80400000D01*
X113925188Y-80403427D01*
G37*
%TD.AperFunction*%
%TD*%
%TA.AperFunction,Conductor*%
%TO.N,/DAC*%
G36*
X135348916Y-67267282D02*
G01*
X136039652Y-67427338D01*
X136046937Y-67432543D01*
X136048408Y-67441376D01*
X136047830Y-67443187D01*
X135901603Y-67798527D01*
X135899035Y-67802369D01*
X135626984Y-68073064D01*
X135618703Y-68076470D01*
X135610438Y-68073022D01*
X135609169Y-68071511D01*
X135171492Y-67450644D01*
X135169526Y-67441908D01*
X135172780Y-67435632D01*
X135338005Y-67270407D01*
X135346277Y-67266981D01*
X135348916Y-67267282D01*
G37*
%TD.AperFunction*%
%TD*%
%TA.AperFunction,Conductor*%
%TO.N,/DAC*%
G36*
X135067891Y-66651100D02*
G01*
X135074053Y-66657086D01*
X135350594Y-67269775D01*
X135350874Y-67278725D01*
X135348203Y-67282861D01*
X135182861Y-67448203D01*
X135174588Y-67451630D01*
X135169775Y-67450594D01*
X134557086Y-67174053D01*
X134550955Y-67167526D01*
X134551079Y-67158937D01*
X134697284Y-66803649D01*
X134703600Y-66797304D01*
X135058937Y-66651079D01*
X135067891Y-66651100D01*
G37*
%TD.AperFunction*%
%TD*%
%TA.AperFunction,Conductor*%
%TO.N,/DAC*%
G36*
X147480696Y-66240890D02*
G01*
X148092437Y-66472141D01*
X148098964Y-66478272D01*
X148100000Y-66483085D01*
X148100000Y-66716914D01*
X148096573Y-66725187D01*
X148092437Y-66727858D01*
X147463655Y-66965551D01*
X147454705Y-66965271D01*
X147448719Y-66959109D01*
X147352306Y-66727858D01*
X147300875Y-66604499D01*
X147300855Y-66595550D01*
X147448719Y-66240889D01*
X147455066Y-66234572D01*
X147463654Y-66234448D01*
X147480696Y-66240890D01*
G37*
%TD.AperFunction*%
%TD*%
M02*
